<svg width="628" height="820" viewBox="0 0 628 820" fill="none" xmlns="http://www.w3.org/2000/svg">
<path d="M101.93 335.972C80.9004 283.667 86.5074 232.366 109.633 183.389C148.148 101.822 213.797 56.7879 303.785 50.0486C363.983 45.5403 418.154 63.6582 464.53 102.648C509.787 140.697 534.689 190.052 543.344 248.234C549.454 289.312 538.91 326.777 520.539 362.86C503.426 396.47 481.106 426.504 457.141 455.393C423.152 496.364 386.621 534.906 346.437 569.887C327.684 586.212 305.404 585.654 287.075 568.754C246.377 531.229 206.801 492.613 172.183 449.258C147.082 417.822 123.863 385.132 107.075 348.32C105.279 344.383 103.741 340.328 101.93 335.972ZM205.112 222.948C205.112 222.948 204.899 222.944 205.075 223.62C203.49 225.994 201.905 228.369 200.32 230.744C200.593 231.131 200.865 231.518 201.138 231.905C202.3 231.324 203.632 230.938 204.584 230.114C205.936 228.944 207.008 227.45 208.414 226.569C208.54 226.688 208.665 226.808 208.98 227.561C209.793 227.319 210.606 227.077 211.755 226.229C212.436 223.969 213.118 221.709 214.113 218.407C211.121 218.99 209.134 219.377 206.391 219.71C205.316 220.216 204.241 220.721 203.165 221.226C203.744 221.812 204.323 222.398 205.112 222.948ZM370.966 225.48C371.313 225.681 371.659 225.882 372.257 226.455C372.257 226.455 372.662 226.646 372.958 227.163C373.9 226.471 374.843 225.779 376.187 224.692C376.314 224.554 376.442 224.417 377.326 224.288C379.684 224.622 382.042 224.956 384.4 225.29C384.52 224.531 384.64 223.772 384.76 223.013C381.917 222.312 379.075 221.611 376.803 221.051C376.21 219.716 375.713 218.599 374.428 217.408C371.797 218.542 369.165 219.676 365.385 221.305C367.844 223.018 369.242 223.992 370.966 225.48ZM234.258 172.566C231.324 170.157 228.193 169.644 225.331 172.397C222.469 175.151 222.651 178.206 225.288 181.206C225.645 181.612 225.35 182.591 224.623 183.076C221.532 179.918 218.248 176.741 213.626 180.101C210.057 182.695 210.347 186.228 212.498 190.44C212.206 190.817 211.915 191.194 211.035 191.699C210.016 192.61 208.997 193.521 207.346 194.805C206.698 199.485 205.799 204.154 205.593 208.854C205.545 209.939 207.832 211.978 209.117 212.038C210.494 212.102 213.027 210.499 213.186 209.363C213.708 205.625 213.382 201.769 213.382 197.958C212.716 197.893 212.049 197.828 211.383 197.763C210.856 201.283 210.33 204.802 209.803 208.322C209.334 208.264 208.864 208.207 208.394 208.149C208.99 204.015 209.585 199.882 210.689 195.432C211.973 194.941 213.258 194.45 214.854 194.388C215.597 194.454 216.34 194.521 217.796 194.698C218.271 194.638 218.747 194.578 219.519 194.85C220.021 194.709 220.523 194.568 221.731 194.574C222.211 194.579 222.691 194.584 223.544 194.923C223.701 194.981 223.858 195.039 224.443 195.704C227.485 200.011 226.5 204.422 224.668 208.865C224.338 205.507 224.008 202.15 223.291 198.243C222.585 198.621 221.252 199.028 221.268 199.373C221.441 203.163 221.824 206.944 222.358 211.231C222.842 211.442 223.325 211.653 224.228 212.228C224.725 212.116 225.223 212.003 226.296 212.069C226.932 211.678 227.568 211.287 228.796 210.278C228.591 205.735 228.386 201.192 228.191 195.999C227.525 194.917 226.858 193.835 226.299 192.173C225.467 191.084 224.634 189.996 224.044 188.257C224.094 187.799 224.143 187.341 224.991 186.545C227.362 186.95 229.733 187.355 231.905 188.598C231.85 196.47 231.788 204.341 231.746 212.213C231.742 213.037 231.535 214.132 231.966 214.636C233.139 216.01 234.863 218.311 235.894 218.084C237.488 217.734 239.428 215.794 239.88 214.157C240.563 211.687 240.291 208.875 239.989 206.259C239.894 205.436 238.401 204.774 236.713 203.809C236.426 203.776 236.139 203.742 236.048 203.006C238.803 199.994 246.585 198.972 250.108 201.161C252.939 202.919 253.829 210.001 251.434 215.229C250.919 211.217 250.49 207.877 250.061 204.537C249.282 204.619 248.503 204.701 247.723 204.783C247.723 207.512 247.384 210.3 247.839 212.951C248.16 214.826 249.203 217.518 250.575 218.003C251.918 218.478 254.086 216.621 256.511 215.455C257.491 214.494 258.47 213.532 260.049 212.537C261.684 212.233 263.318 211.929 265.488 212.036C265.264 213.758 265.039 215.481 264.814 217.203C268.175 217.207 271.576 217.481 274.863 216.989C275.524 216.891 275.751 213.887 276.887 212.202C278.452 211.006 280.941 210.101 281.425 208.564C283.717 201.283 281.358 195.053 275.13 190.401C275.297 189.993 275.416 189.526 275.658 189.136C277.872 185.573 277.275 182.205 274.036 179.935C270.961 177.779 267.83 178.533 265.23 181.504C264.522 182.313 263.046 182.449 261.923 182.894C264.084 179.343 265.74 176.265 262.959 172.856C260.484 169.82 257.315 169.778 253.265 171.718C252.233 171.724 251.2 171.729 249.787 171.16C245.575 165.721 242.044 165.618 236.784 171.085C236.137 171.722 235.491 172.359 234.258 172.566ZM395.228 358.863C384.265 358.902 373.301 358.898 362.338 359.025C360.693 359.044 359.054 359.672 357.412 360.018C357.461 360.605 357.509 361.191 357.558 361.777C359.079 362.019 360.598 362.461 362.12 362.471C372.253 362.541 382.386 362.516 392.519 362.528C401.987 362.538 411.456 362.585 420.924 362.551C423.505 362.542 426.493 362.535 423.1 358.276C423.141 357.851 423.182 357.427 423.796 356.401C424.917 353.767 423.283 353.684 421.377 353.711C416.718 353.777 412.042 354.034 407.403 353.739C402.448 353.425 397.527 352.566 392.59 351.946C392.649 351.486 392.707 351.026 392.766 350.567C400.905 350.567 409.047 350.679 417.181 350.494C419.426 350.443 421.65 349.508 423.884 348.978C421.928 347.949 419.971 346.92 417.45 345.594C417.45 342.977 417.45 339.538 417.45 336.007C418.597 335.662 419.774 335.308 420.27 335.159C418.829 331.191 417.454 327.554 416.197 323.877C415.598 322.126 415.43 318.868 414.709 318.764C412.268 318.41 409.666 319.16 407.126 319.489C405.456 319.656 402.971 318.587 401.98 319.381C396.577 323.713 391.541 328.504 386.379 333.137C391.865 338.749 388.235 344.934 389.731 351.013C384.66 350.468 380.363 350.228 376.173 349.428C374.828 349.172 372.764 347.43 372.775 346.384C372.797 344.068 373.198 340.617 374.726 339.646C382.641 334.62 384.328 331.323 382.126 322.342C381.044 317.927 375.941 313.502 371.334 313.171C366.717 312.839 363.095 314.787 361.173 318.938C360.248 320.936 360.482 323.446 360.034 325.693C358.554 333.109 359.436 335.698 366.234 338.883C370.478 340.871 369.009 344.118 368.706 346.89C368.61 347.772 365.777 348.514 364.106 349.023C362.096 349.636 359.99 349.931 357.925 350.364C358.072 350.608 358.218 350.853 358.364 351.097C371.378 352.96 384.391 354.824 396.648 357.676C396.488 358.049 396.327 358.422 395.228 358.863ZM249.182 250.785C253.292 250.812 255.572 248.603 255.437 244.666C255.298 240.65 252.603 238.94 248.668 238.951C242.669 238.969 236.67 238.878 230.671 238.867C224.931 238.856 223.255 240.464 223.223 246.292C223.17 255.624 223.201 264.956 223.257 274.289C223.302 281.947 224.715 283.398 232.257 283.423C250.589 283.486 268.924 283.697 287.25 283.391C292.443 283.304 293.582 284.895 293.565 289.85C293.408 335.012 293.52 380.174 293.533 425.337C293.533 426.895 293.308 428.453 293.142 430.622C287.435 429.388 282.36 428.516 277.409 427.186C189.844 403.655 143.284 315.023 169.199 231.411C172.478 220.83 178.115 210.998 182.119 200.61C183.166 197.892 183.229 193.746 181.814 191.44C180.524 189.337 176.256 187.412 173.957 187.995C171.096 188.721 167.992 191.631 166.567 194.406C144.687 236.99 139.1 281.555 152.897 327.618C188.345 445.964 335.77 488.301 428.922 407.17C483.321 359.79 502.614 284.564 477.462 217.012C474.333 208.61 470.264 200.53 466.217 192.509C463.725 187.57 458.634 186.197 454.449 188.593C450.34 190.945 449.185 195.471 451.468 200.325C451.822 201.078 452.236 201.803 452.632 202.537C468.385 231.732 474.893 262.919 470.337 295.734C462.02 355.636 429.444 397.494 373.927 421.399C362.591 426.28 350.618 428.983 337.887 430.565C337.789 428.507 337.667 426.896 337.643 425.283C337.535 418.119 337.5 410.953 337.349 403.79C337.243 398.742 335.055 395.872 331.436 396.23C327.058 396.664 325.791 399.591 325.873 403.642C325.997 409.803 325.697 415.977 325.949 422.13C326.094 425.677 324.886 426.922 321.394 426.679C317.911 426.436 314.36 426.281 310.908 426.685C306.103 427.247 305.105 425.274 305.118 420.801C305.253 374.306 305.182 327.809 305.176 281.313C305.175 273.226 303.715 271.781 295.548 271.762C276.883 271.72 258.218 271.67 239.553 271.576C237.532 271.566 234.873 272.284 234.865 268.785C234.852 262.998 234.862 257.212 234.862 250.787C239.725 250.787 244.005 250.787 249.182 250.785ZM325.945 199.245C325.971 213.243 326.007 227.241 326.019 241.239C326.026 249.754 327.375 251.203 335.812 251.215C354.31 251.243 372.809 251.321 391.304 251.12C395.633 251.072 397.901 251.938 397.372 256.833C397.016 260.125 397.108 263.514 397.429 266.818C397.824 270.888 396.19 271.847 392.306 271.811C373.477 271.636 354.645 271.743 335.814 271.777C327.329 271.792 325.984 273.119 325.975 281.697C325.945 312.36 325.955 343.023 325.958 373.686C325.959 375.518 325.385 377.768 326.228 379.087C327.572 381.19 329.732 383.762 331.838 384.057C333.399 384.276 335.978 381.497 337.071 379.491C338.004 377.776 337.564 375.262 337.567 373.101C337.603 345.274 337.716 317.446 337.518 289.62C337.485 284.939 338.561 283.347 343.512 283.426C362.839 283.734 382.172 283.603 401.503 283.596C407.412 283.594 409.001 282.023 409.032 276.273C409.079 267.274 409.094 258.275 409.085 249.277C409.076 240.557 407.652 239.147 398.931 239.12C380.434 239.062 361.935 238.862 343.441 239.068C338.919 239.118 337.433 237.999 337.473 233.311C337.641 213.817 337.438 194.32 337.322 174.824C337.285 168.703 335.715 167.088 329.635 167.005C320.471 166.88 311.305 166.843 302.14 166.859C294.924 166.873 293.404 168.525 293.421 175.733C293.466 195.231 293.385 214.729 293.58 234.224C293.617 237.962 292.528 239.243 288.783 239.037C283.799 238.763 278.787 239.066 273.79 238.972C269.679 238.895 266.365 239.8 266.043 244.658C265.776 248.685 268.456 251.017 273.704 251.111C281.2 251.244 288.701 251.178 296.199 251.12C303.691 251.061 305.14 249.549 305.143 241.918C305.149 222.421 305.087 202.923 305.219 183.426C305.23 181.822 306.424 178.889 307.213 178.839C313.27 178.452 319.362 178.626 325.131 178.626C325.559 179.655 325.79 179.955 325.794 180.258C325.859 186.254 325.897 192.25 325.945 199.245ZM305.3 121.214C337.432 119.134 367.543 125.866 395.441 142.042C409.977 150.47 422.63 161.179 433.695 173.838C437.031 177.653 442.034 177.885 445.262 175.015C448.688 171.971 448.915 167.584 445.786 163.367C444.796 162.033 443.644 160.818 442.543 159.569C431.984 147.594 419.534 137.861 406.091 129.412C346.108 91.71 263.496 97.2419 208.834 142.822C201.205 149.184 194.405 156.611 187.754 164.024C186.172 165.788 185.816 169.779 186.602 172.189C187.239 174.141 190.503 176.53 192.481 176.426C195.004 176.293 197.95 174.341 199.777 172.324C227.856 141.327 262.783 124.505 305.3 121.214ZM435.31 308.672C435.631 307.345 435.952 306.017 436.273 304.69C435.801 304.463 435.329 304.236 434.857 304.009C433.194 305.909 431.532 307.808 429.829 309.754C428.846 309.169 427.822 308.561 426.098 307.537C424.985 311.174 424.028 314.303 422.711 318.607C427.498 317.724 430.847 317.107 434.747 316.388C433.355 314.344 432.663 313.328 432.014 312.375C433.15 311.168 434.052 310.209 435.31 308.672ZM246.725 328.665C250.125 327.734 253.525 326.803 256.926 325.872C256.88 325.284 256.835 324.696 256.789 324.108C254.158 322.188 251.527 320.268 248.298 317.911C247.689 321.994 247.245 324.972 246.725 328.665ZM437.133 297.296C436.902 297.915 436.469 298.54 436.485 299.154C436.512 300.181 436.825 301.201 437.017 302.224C437.827 301.874 439.168 301.697 439.349 301.142C439.932 299.348 440.089 297.416 440.41 295.537C439.387 295.886 438.364 296.235 437.133 297.296Z" fill="#0E8D8B"/>
<path d="M558.498 177.574C517.67 81.972 445.273 29.3609 342.943 17.0891C337.341 16.4173 331.633 16.593 325.972 16.4674C319.517 16.3242 315.481 13.2219 315.518 8.29753C315.555 3.20403 319.431 0.0343798 325.856 0.00290884C360.674 -0.167661 393.994 7.16851 425.969 20.6186C482.348 44.3332 526.242 82.4437 556.872 135.504C577.726 171.628 588.846 210.717 591.568 252.268C591.692 254.164 591.993 256.048 592.241 258.188C593.305 257.808 593.789 257.725 594.172 257.484C597.003 255.708 601.03 251.738 602.403 252.509C606.431 254.774 609.488 258.844 612.684 262.422C613.104 262.893 612.474 264.994 611.727 265.708C603.414 273.642 594.99 281.46 586.577 289.289C584.034 291.656 581.46 291.496 579.116 289.031C571.543 281.066 563.916 273.146 556.603 264.946C555.696 263.929 556.458 261.324 556.662 259.478C556.719 258.962 557.543 258.531 558.015 258.061C565.67 250.427 565.67 250.426 574.658 257.007C573.946 229.293 567.974 203.287 558.498 177.574Z" fill="#58595A"/>
<path d="M207.733 707.745C207.734 717.871 207.734 727.497 207.734 737.367C201.956 737.367 196.74 737.367 191.124 737.367C191.124 707.637 191.124 678.229 191.124 648.464C198.467 647.667 204.848 647.133 210.19 654.692C220.367 669.093 231.682 682.69 242.535 696.613C243.954 698.433 245.431 700.207 247.862 703.217C247.862 684.201 247.862 666.6 247.862 647.991C253.275 647.991 258.038 647.749 262.735 648.201C263.647 648.289 264.947 651.073 264.969 652.629C265.151 665.953 265.08 679.281 265.083 692.608C265.086 705.602 265.087 718.597 265.089 731.591C265.089 733.392 265.089 735.193 265.089 736.86C257.002 739.058 255.254 738.499 250.71 732.611C237.686 715.737 224.66 698.865 211.619 682.004C210.757 680.889 209.761 679.877 207.733 679.133C207.733 688.503 207.733 697.874 207.733 707.745Z" fill="#158C8B"/>
<path d="M345.65 685.767C345.794 690.769 345.794 695.382 345.794 700.499C340.033 700.499 334.759 700.509 329.485 700.497C319.994 700.476 310.502 700.543 301.014 700.356C297.853 700.293 296.417 701.166 296.617 704.539C296.854 708.523 296.925 712.539 296.705 716.521C296.513 719.998 297.755 721.159 301.253 721.109C315.237 720.905 329.229 721.101 343.21 720.798C347.311 720.709 348.486 722.082 348.194 725.928C347.919 729.551 348.135 733.212 348.135 737.315C325.472 737.315 303.119 737.315 280.327 737.315C280.327 707.743 280.327 678.222 280.327 648.343C281.943 648.239 283.394 648.068 284.845 648.065C304.327 648.028 323.809 648.095 343.29 647.924C346.902 647.892 348.499 648.745 348.162 652.634C347.848 656.26 348.095 659.934 348.095 664.127C345.978 664.232 344.213 664.393 342.448 664.396C328.961 664.419 315.47 664.57 301.988 664.32C297.746 664.241 296.389 665.665 296.709 669.728C296.983 673.203 296.93 676.731 296.677 680.21C296.419 683.781 297.867 684.759 301.297 684.712C314.447 684.53 327.601 684.578 340.754 684.62C342.339 684.625 343.922 685.114 345.65 685.767Z" fill="#188E8D"/>
<path d="M591.365 739.043C573.681 741.486 557.97 738.713 545.841 724.981C531.033 708.215 531.662 677.96 546.988 660.888C561.946 644.225 589.337 640.989 607.984 654.484C613.306 658.336 617.988 663.941 621.167 669.729C632.698 690.725 626.979 718.824 608.616 731.801C603.75 735.239 597.443 736.638 591.365 739.043ZM594.412 664.716C582.89 660.002 571.858 660.495 562.14 668.775C553.764 675.911 551.516 685.644 551.949 696.261C552.826 717.749 573.437 730.703 593.26 722.141C603.831 717.574 608.942 709.039 609.869 697.99C611.007 684.414 607.911 672.483 594.412 664.716Z" fill="#158C8B"/>
<path d="M96.4397 724.452C83.9228 706.505 82.8765 687.866 92.5991 668.988C101.826 651.073 121.435 643.235 143.487 647.615C161.152 651.123 175.004 666.817 176.97 685.962C178.85 704.274 174.643 720.317 159.107 731.983C144.587 742.887 112.079 744.02 96.4397 724.452ZM160.592 688.887C158.565 673.035 149.403 663.385 135.124 662.061C120.976 660.749 108.849 668.319 104.904 682.018C103.292 687.617 102.866 693.917 103.486 699.729C105.044 714.34 115.53 723.557 130.29 724.417C144.479 725.244 156.1 717.005 159.546 703.107C160.608 698.824 160.347 694.212 160.592 688.887Z" fill="#148C8B"/>
<path d="M243.597 594.281C224.994 576.375 206.103 559.238 188.451 540.908C170.977 522.763 154.754 503.414 137.979 484.589C137.916 484.65 137.563 484.829 137.47 485.098C136.467 487.981 135.904 493.091 134.456 493.352C130.22 494.116 125.6 493.153 121.217 492.378C120.262 492.209 118.901 489.921 119.026 488.748C120.258 477.164 121.709 465.601 123.229 454.05C123.647 450.874 125.766 449.493 128.953 449.977C139.98 451.653 151.002 453.368 162.03 455.038C165.095 455.503 166.436 457.014 165.613 460.196C164.586 464.171 164.891 469.69 162.356 471.733C159.888 473.722 154.562 472.165 149.666 472.165C151.217 474.417 152.377 476.349 153.773 478.092C184.863 516.919 218.684 553.115 256.941 585.029C263.559 590.55 264.789 594.814 261.088 599.147C257.612 603.216 253.403 602.636 246.851 597.166C245.829 596.313 244.851 595.408 243.597 594.281Z" fill="#58585A"/>
<path d="M456.145 737.318C452.444 737.416 448.742 737.514 444.534 737.172C443.01 736.052 441.992 735.372 440.974 734.692C448.39 717.946 455.844 701.217 463.206 684.447C467.895 673.768 472.561 663.076 476.987 652.287C478.273 649.152 480.105 648.563 483.312 648.125C493.614 646.719 498.966 650.159 502.977 660.491C512.373 684.694 523.592 708.189 534.053 731.98C534.771 733.613 535.318 735.322 536.238 737.779C530.488 737.779 525.381 737.866 520.282 737.699C519.371 737.669 518.415 736.675 517.632 735.96C517.174 735.542 516.861 734.822 516.75 734.191C514.592 721.845 506.897 718.985 495.363 720.365C486.656 721.406 477.715 720.365 468.894 720.691C467.107 720.757 464.757 722.403 463.776 724.001C461.615 727.52 460.163 731.473 457.898 735.521C456.964 736.301 456.555 736.81 456.145 737.318ZM492.447 676.948C491.176 674.166 489.905 671.383 488.09 667.408C482.399 680.551 477.254 692.434 471.915 704.766C482.924 704.766 493.012 704.766 504.245 704.766C500.238 695.262 496.519 686.44 492.447 676.948Z" fill="#158D8D"/>
<path d="M440.718 734.857C441.992 735.372 443.01 736.052 444.086 737.052C437 737.458 429.846 737.767 422.718 737.466C421.022 737.394 418.934 735.619 417.843 734.057C412.316 726.143 407.068 718.034 401.699 710.009C400.611 708.382 399.424 706.821 397.731 704.46C392.731 711.861 387.392 718.299 383.708 725.575C378.703 735.461 371.668 739.84 360.726 737.776C359.626 737.568 358.453 737.748 356.628 737.748C357.344 736.261 357.678 735.24 358.267 734.395C366.929 721.968 375.543 709.506 384.373 697.199C386.422 694.343 386.602 692.256 384.55 689.268C375.422 675.974 366.54 662.512 356.95 648.186C363.397 648.186 369.092 647.985 374.751 648.35C375.939 648.426 377.177 650.463 378.078 651.807C383.36 659.689 388.539 667.639 393.775 675.552C394.856 677.188 396.028 678.763 397.681 681.107C400.025 677.727 402 674.938 403.913 672.107C408.387 665.486 413.013 658.957 417.208 652.162C419.238 648.872 421.654 647.688 425.392 647.949C429.454 648.233 433.552 648.014 438.847 648.014C434.506 654.499 430.974 659.865 427.35 665.168C421.718 673.412 416.094 681.665 410.308 689.801C408.704 692.056 408.687 693.68 410.309 695.981C419.131 708.497 427.766 721.144 436.505 733.719C437.432 735.052 438.157 737.612 440.718 734.857Z" fill="#168D8D"/>
<path d="M19.5156 654.096C38.29 641.105 68.9018 645.287 79.5803 659.785C78.5436 661.128 77.5213 662.616 76.3331 663.956C74.3487 666.195 72.5451 669.582 70.1243 670.141C68.0853 670.611 65.2242 667.833 62.8174 666.346C43.2972 654.291 19.153 666.287 17.154 689.104C15.9771 702.537 19.2235 713.929 32.1264 720.761C43.2687 726.66 57.4924 724.731 68.4495 715.762C68.833 715.448 69.2699 715.199 70.2793 714.515C73.7911 718.266 77.3649 722.083 81.3455 726.334C68.0348 739.093 52.5463 741.727 35.7305 738.674C17.0588 735.285 5.23375 723.939 1.41497 705.483C-2.78227 685.199 2.1016 667.473 19.5156 654.096Z" fill="#158B8A"/>
<path d="M61.9976 803.737C62.0058 807.898 61.8907 811.565 62.061 815.219C62.1965 818.13 61.3104 819.587 58.139 819.383C55.1913 819.193 52.2217 819.343 48.6855 819.343C48.6855 812.564 48.6855 806.338 48.6855 800.111C48.212 799.889 47.7385 799.667 47.265 799.444C42.5499 805.99 37.8347 812.536 32.7106 819.65C27.5013 812.376 22.8117 805.828 18.122 799.28C17.6803 799.372 17.2387 799.463 16.797 799.555C16.797 805.833 16.797 812.111 16.797 818.758C11.8937 818.758 7.86848 818.758 3.59097 818.758C3.59097 799.742 3.59097 781.032 3.59097 762.323C4.03867 762.044 4.48636 761.765 4.93405 761.486C13.9387 773.34 22.9434 785.194 32.482 797.75C41.8487 785.32 50.8429 773.383 59.837 761.446C60.5572 761.617 61.2774 761.787 61.9976 761.958C61.9976 775.718 61.9976 789.479 61.9976 803.737Z" fill="#5B5B5C"/>
<path d="M258.755 779.492C265.32 767.239 275.328 761.491 288.766 762.464C300.795 763.334 309.378 769.766 313.974 780.801C318.909 792.653 314.823 805.681 304.34 813.704C294.185 821.476 278.443 821.464 267.937 813.677C257.242 805.749 253.763 793.156 258.755 779.492ZM300.871 785.822C300.294 784.628 299.853 783.342 299.117 782.255C295.086 776.308 286.767 773.941 280.015 776.745C273.277 779.542 269.325 786.693 270.631 793.723C271.99 801.036 278.2 806.026 286.02 806.089C296.929 806.178 303.433 797.767 300.871 785.822Z" fill="#5A5A5B"/>
<path d="M473.339 785.745C473.338 777.949 473.338 770.654 473.338 762.022C483.476 762.715 493.489 762.02 502.736 764.355C516.751 767.893 520.368 785.873 510.018 796.087C508.962 797.129 507.845 798.109 506.41 799.439C510.547 805.646 514.65 811.801 519.417 818.952C513.553 818.952 508.804 819.133 504.087 818.823C502.94 818.747 501.681 817.217 500.847 816.081C497.697 811.792 494.736 807.365 491.628 803.044C490.625 801.65 489.388 800.423 488.259 799.119C487.819 799.245 487.379 799.371 486.939 799.497C486.939 805.814 486.939 812.13 486.939 818.758C482.068 818.758 478.022 818.758 473.339 818.758C473.339 807.771 473.339 797.008 473.339 785.745ZM486.541 778.606C486.545 779.929 486.545 781.251 486.552 782.574C486.589 789.784 486.588 789.734 493.592 789.463C497.388 789.316 501.049 788.226 501.346 784.159C501.523 781.747 499.898 777.834 497.985 776.937C494.524 775.314 490.076 773.653 486.541 778.606Z" fill="#5C5C5D"/>
<path d="M381.773 816.799C380.267 821.512 378.533 818.314 377.284 817.181C368.4 809.122 359.618 800.952 350.789 792.832C349.857 791.975 348.833 791.218 347.063 789.769C347.063 799.853 347.063 809.039 347.063 819.118C342.766 819.118 339.017 819.271 335.299 818.991C334.537 818.934 333.293 817.262 333.288 816.329C333.186 798.669 333.236 781.009 333.275 763.349C333.276 763.054 333.548 762.759 334.349 761.133C345.352 770.922 356.101 780.485 367.806 790.899C367.806 781.041 367.806 772.229 367.806 762.951C372.586 762.951 376.637 762.951 381.799 762.951C381.799 780.606 381.799 798.502 381.773 816.799Z" fill="#5C5C5E"/>
<path d="M188.63 776.088C186.421 777.036 184.588 778.08 182.755 779.123C184.007 780.849 184.897 783.253 186.588 784.157C189.924 785.94 193.764 786.747 197.287 788.218C203.643 790.87 207.651 795.328 207.578 802.632C207.508 809.628 203.596 815.002 196.582 817.746C183.101 823.02 168.783 815.42 167.912 801.811C171.533 801.272 175.226 800.567 178.952 800.28C179.835 800.211 180.84 801.522 181.765 802.231C183.275 803.388 184.791 805.557 186.258 805.518C188.568 805.457 191.954 804.539 192.883 802.87C194.571 799.839 191.545 798.189 188.98 797.222C185.251 795.818 181.285 794.969 177.685 793.31C166.406 788.111 165.283 773.114 175.506 766.006C187.014 758.005 203.441 763.572 205.981 776.354C206.136 777.136 206.001 777.977 206.001 779.313C201.788 780.035 197.589 780.755 193.679 781.425C191.966 779.504 190.486 777.844 188.63 776.088Z" fill="#5B5B5C"/>
<path d="M150.769 795.299C155.18 806.418 150.195 815.863 138.917 818.441C125.408 821.53 114.078 814.616 112.832 801.732C116.635 801.171 120.488 800.444 124.373 800.155C125.219 800.092 126.096 801.74 127.108 802.356C129.12 803.579 131.18 805.35 133.327 805.519C134.92 805.644 136.683 803.596 138.37 802.516C137.277 800.852 136.554 798.479 135.012 797.672C131.958 796.075 128.393 795.493 125.144 794.222C116.239 790.739 112.184 783.735 114.106 775.454C116.038 767.129 125.214 761.493 135.21 762.492C144.174 763.388 150.94 769.989 151.223 778.145C151.234 778.441 150.992 778.746 150.7 779.452C146.882 780.118 142.836 780.822 138.79 781.527C138.956 781.035 139.122 780.544 139.288 780.052C136.672 778.717 134.147 777.06 131.375 776.27C130.667 776.068 128.287 778.555 128.207 779.897C127.933 784.518 132.194 784.553 135.146 785.597C140.97 787.656 146.989 789.28 150.769 795.299Z" fill="#5B5B5C"/>
<path d="M417.781 812.072C413.586 820.145 412.566 820.52 399.377 818.531C408.564 799.431 417.617 780.61 426.671 761.789C427.241 761.751 427.811 761.714 428.381 761.676C437.403 780.512 446.424 799.347 455.926 819.187C450.901 819.187 446.781 819.545 442.788 818.988C441.427 818.799 440.005 816.474 439.286 814.83C438.067 812.042 436.466 810.603 433.263 810.877C428.198 811.309 423.111 811.471 417.781 812.072ZM425.766 794.11C425.127 795.76 424.487 797.409 423.664 799.535C426.481 799.535 428.648 799.535 431.271 799.535C430.713 797.848 430.347 796.618 429.896 795.419C429.605 794.648 429.36 793.526 428.785 793.277C428.041 792.955 426.989 793.347 425.766 794.11Z" fill="#5A5A5B"/>
<path d="M567.775 817.835C576.578 798.85 585.355 780.227 594.132 761.603C594.694 761.556 595.256 761.509 595.818 761.462C604.721 780.368 613.624 799.274 623.056 819.303C617.962 819.303 613.844 819.655 609.848 819.111C608.465 818.922 606.829 816.695 606.283 815.071C605.112 811.59 603.024 810.44 599.545 810.788C597.237 811.019 594.861 811.047 592.56 810.783C587.884 810.246 584.461 811.361 583.031 816.397C582.733 817.444 581.292 818.908 580.376 818.91C576.167 818.919 571.958 818.478 567.775 817.835ZM595.577 799.747C599.015 798.268 598.698 796.041 594.239 792.002C593.484 793.558 592.756 795.017 592.064 796.493C590.672 799.462 592.304 799.955 595.577 799.747Z" fill="#5B5B5C"/>
<path d="M535.346 773.787C535.35 771.966 535.353 770.636 535.355 769.307C535.363 762.429 535.363 762.429 542.44 762.431C548.976 762.434 548.984 762.434 548.985 768.855C548.987 784.143 548.987 799.431 548.969 814.719C548.968 816.015 548.832 817.311 548.742 818.9C544.423 818.9 540.34 818.9 535.345 818.9C535.345 804.004 535.345 789.142 535.346 773.787Z" fill="#5F6161"/>
<path d="M82.4728 762.897C86.5608 762.785 90.1942 762.785 94.2071 762.785C94.2071 781.651 94.2071 800.04 94.2071 818.822C89.9212 818.822 85.7336 818.822 81.0354 818.822C81.0354 803.213 80.9803 787.927 81.08 772.641C81.1009 769.429 81.6905 766.22 82.4728 762.897Z" fill="#5A5A5B"/>
<path d="M225.006 781.745C225.042 775.597 225.073 769.948 225.133 764.3C225.136 764.007 225.395 763.718 225.885 762.7C228.956 762.7 232.413 762.501 235.821 762.823C236.819 762.918 238.473 764.487 238.482 765.394C238.656 782.351 238.668 799.309 238.525 816.266C238.517 817.19 236.92 818.799 235.948 818.892C232.533 819.216 229.067 819.018 225.007 819.018C225.007 806.419 225.007 794.332 225.006 781.745Z" fill="#58595A"/>
<path d="M503.014 637.725C497.218 642.084 491.704 640.546 486.286 637.828C482.583 635.971 479.64 635.553 475.828 638.566C474.35 639.735 469.746 637.362 466.854 635.995C466.252 635.71 466.355 632.441 467.093 631.062C470.931 623.892 477.04 621.762 484.27 624.695C488.898 626.571 493.102 629.747 498.531 625.249C499.935 624.086 504.759 627.05 509.214 628.514C506.964 631.928 505.131 634.708 503.014 637.725Z" fill="#1B9190"/>
<path d="M421.494 755.402C424.372 750.995 427.288 746.809 430.529 742.894C431.14 742.156 433.416 741.903 434.286 742.447C436.465 743.808 438.277 745.755 440.809 747.967C436.518 751.633 432.801 755.122 428.75 758.168C425.567 760.561 423.764 757.303 421.494 755.402Z" fill="#5C5C5E"/>
<path d="M456.432 737.385C456.555 736.81 456.964 736.301 457.636 735.747C457.504 736.285 457.111 736.868 456.432 737.385Z" fill="#168D8D"/>
<path d="M248.733 250.786C244.005 250.787 239.725 250.787 234.862 250.787C234.862 257.212 234.852 262.998 234.865 268.784C234.873 272.284 237.532 271.566 239.553 271.576C258.218 271.67 276.883 271.72 295.548 271.762C303.715 271.781 305.175 273.226 305.176 281.313C305.182 327.809 305.253 374.306 305.118 420.801C305.105 425.274 306.103 427.247 310.908 426.685C314.36 426.281 317.911 426.436 321.394 426.679C324.886 426.922 326.094 425.677 325.949 422.13C325.697 415.977 325.997 409.803 325.873 403.642C325.791 399.591 327.058 396.664 331.436 396.23C335.055 395.872 337.243 398.742 337.349 403.79C337.5 410.953 337.535 418.119 337.643 425.283C337.667 426.896 337.789 428.507 337.887 430.565C350.618 428.983 362.591 426.28 373.927 421.399C429.444 397.494 462.02 355.635 470.337 295.734C474.893 262.919 468.385 231.732 452.632 202.536C452.236 201.803 451.822 201.078 451.468 200.325C449.185 195.471 450.34 190.945 454.449 188.593C458.634 186.197 463.725 187.57 466.217 192.509C470.264 200.53 474.333 208.61 477.462 217.012C502.614 284.564 483.321 359.79 428.922 407.17C335.77 488.301 188.345 445.963 152.897 327.618C139.1 281.555 144.687 236.99 166.566 194.406C167.992 191.631 171.096 188.721 173.957 187.995C176.256 187.412 180.524 189.337 181.814 191.44C183.229 193.746 183.166 197.892 182.119 200.61C178.115 210.998 172.478 220.83 169.199 231.411C143.284 315.023 189.844 403.655 277.408 427.186C282.36 428.516 287.435 429.388 293.142 430.622C293.308 428.453 293.533 426.895 293.533 425.337C293.52 380.174 293.408 335.012 293.565 289.85C293.582 284.895 292.443 283.304 287.25 283.391C268.924 283.697 250.589 283.486 232.257 283.423C224.715 283.398 223.302 281.947 223.257 274.289C223.201 264.956 223.17 255.624 223.222 246.292C223.255 240.464 224.931 238.856 230.671 238.867C236.67 238.878 242.669 238.969 248.668 238.951C252.603 238.94 255.298 240.65 255.437 244.666C255.572 248.603 253.292 250.811 248.733 250.786Z" fill="#F3FBFA"/>
<path d="M325.943 198.745C325.897 192.25 325.859 186.254 325.794 180.258C325.79 179.955 325.559 179.655 325.131 178.626C319.362 178.626 313.27 178.452 307.213 178.839C306.424 178.889 305.23 181.822 305.219 183.426C305.087 202.923 305.149 222.421 305.143 241.918C305.14 249.549 303.691 251.061 296.199 251.12C288.701 251.178 281.2 251.244 273.704 251.111C268.456 251.017 265.776 248.685 266.042 244.658C266.365 239.8 269.679 238.895 273.79 238.972C278.787 239.066 283.799 238.763 288.783 239.037C292.528 239.243 293.617 237.962 293.58 234.224C293.385 214.729 293.466 195.231 293.421 175.733C293.404 168.525 294.924 166.873 302.14 166.859C311.305 166.843 320.471 166.88 329.635 167.005C335.715 167.088 337.285 168.703 337.322 174.824C337.438 194.32 337.641 213.817 337.473 233.311C337.433 237.999 338.919 239.118 343.441 239.068C361.935 238.862 380.434 239.062 398.931 239.12C407.652 239.147 409.076 240.557 409.085 249.276C409.094 258.275 409.079 267.274 409.032 276.273C409.001 282.023 407.412 283.594 401.503 283.596C382.172 283.603 362.839 283.734 343.512 283.426C338.561 283.347 337.485 284.939 337.518 289.62C337.716 317.446 337.603 345.274 337.567 373.101C337.564 375.262 338.004 377.776 337.071 379.491C335.978 381.497 333.399 384.276 331.838 384.057C329.732 383.762 327.572 381.19 326.228 379.087C325.385 377.768 325.959 375.518 325.958 373.686C325.955 343.023 325.945 312.36 325.975 281.697C325.984 273.119 327.329 271.792 335.814 271.777C354.645 271.743 373.477 271.636 392.306 271.811C396.19 271.847 397.824 270.888 397.429 266.818C397.108 263.514 397.016 260.125 397.372 256.833C397.901 251.938 395.633 251.072 391.304 251.12C372.809 251.321 354.31 251.243 335.812 251.215C327.375 251.203 326.026 249.754 326.019 241.239C326.007 227.241 325.971 213.243 325.943 198.745Z" fill="#F1FAF9"/>
<path d="M304.839 121.245C262.783 124.505 227.856 141.327 199.777 172.324C197.95 174.341 195.004 176.293 192.481 176.426C190.503 176.53 187.239 174.141 186.602 172.189C185.816 169.779 186.172 165.788 187.754 164.024C194.405 156.611 201.205 149.184 208.834 142.822C263.496 97.2419 346.108 91.71 406.091 129.412C419.534 137.861 431.984 147.594 442.543 159.569C443.644 160.818 444.796 162.033 445.786 163.367C448.915 167.584 448.688 171.971 445.262 175.015C442.034 177.885 437.031 177.653 433.695 173.838C422.63 161.179 409.977 150.47 395.441 142.042C367.543 125.866 337.432 119.134 304.839 121.245Z" fill="#F4FBFA"/>
<path d="M223.171 194.589C222.691 194.584 222.211 194.579 221.232 194.328C220.229 194.228 219.725 194.373 219.222 194.518C218.747 194.578 218.271 194.638 217.193 194.401C215.908 194.056 215.225 194.007 214.543 193.959C213.258 194.45 211.973 194.941 210.094 195.556C208.992 195.263 208.485 194.847 207.978 194.432C208.997 193.521 210.016 192.61 211.81 191.681C215.264 191.662 217.943 191.662 220.622 191.662C220.606 191.422 220.59 191.182 220.574 190.941C217.901 190.537 215.228 190.132 212.555 189.727C210.347 186.228 210.057 182.694 213.626 180.101C218.248 176.741 221.532 179.918 225.313 183.347C228.73 183.473 231.456 183.329 234.312 182.823C234.351 182.22 234.26 181.98 234.154 181.74C234.138 181.74 234.144 181.771 234.486 181.943C236.728 181.247 238.63 180.378 239.315 180.065C238.591 176.539 238.001 173.668 237.412 170.797C242.044 165.618 245.575 165.721 249.943 171.839C249.335 174.862 248.569 177.206 247.745 179.732C248.583 180.16 250.106 180.939 251.304 181.552C252.268 178.079 253.154 174.886 254.04 171.692C257.315 169.778 260.484 169.82 262.959 172.856C265.74 176.265 264.084 179.343 261.923 182.894C263.046 182.449 264.522 182.313 265.23 181.504C267.83 178.533 270.961 177.779 274.036 179.935C277.275 182.205 277.872 185.573 275.658 189.136C275.416 189.526 275.297 189.993 275.13 190.401C281.358 195.053 283.717 201.283 281.425 208.564C280.941 210.101 278.452 211.006 276.276 212.005C271.879 207.704 273.286 203.039 274.601 198.489C275.957 198.552 276.93 198.552 277.904 198.552C278.066 198.069 278.228 197.586 278.391 197.102C276.642 196.303 274.894 195.505 272.707 194.682C270.218 194.655 268.167 194.652 265.73 194.581C260.655 197.026 259.302 202.996 262.778 209.824C262.985 206.486 262.811 204.214 263.369 202.14C263.717 200.848 265.174 199.855 266.167 199.167C266.237 201.664 266.273 203.721 266.229 206.096C266.201 206.847 266.253 207.279 266.24 208.056C265.767 209.475 265.36 210.55 264.952 211.625C263.318 211.929 261.684 212.233 259.674 212.15C256.554 202.812 258.696 194.762 264.245 186.675C261.028 186.675 258.235 186.675 254.571 186.675C255.021 196.587 255.456 206.187 255.892 215.787C254.086 216.621 251.918 218.478 250.575 218.003C249.203 217.518 248.16 214.826 247.839 212.951C247.384 210.3 247.723 207.512 247.723 204.783C248.503 204.701 249.282 204.619 250.061 204.537C250.49 207.877 250.919 211.217 251.434 215.229C253.829 210.001 252.939 202.919 250.108 201.161C246.585 198.972 238.803 199.994 235.674 203.663C235.301 207.715 235.301 211.109 235.301 214.504C235.685 214.502 236.068 214.5 236.452 214.498C236.817 211.012 237.183 207.525 237.548 204.038C238.401 204.774 239.894 205.436 239.989 206.259C240.291 208.875 240.563 211.687 239.88 214.157C239.428 215.794 237.488 217.734 235.894 218.084C234.863 218.311 233.139 216.01 231.966 214.636C231.535 214.132 231.742 213.037 231.746 212.213C231.788 204.341 231.85 196.47 232.263 187.96C230.795 183.817 227.572 183.65 224.193 186.884C224.143 187.341 224.094 187.799 223.755 188.791C224.375 190.467 225.283 191.61 226.191 192.754C226.858 193.835 227.525 194.917 228.17 196.797C228.167 202.028 228.185 206.462 228.203 210.895C227.568 211.287 226.932 211.678 225.53 211.956C224.446 211.849 224.127 211.857 223.809 211.864C223.325 211.653 222.842 211.442 222.253 210.524C222.659 206.142 223.168 202.468 223.678 198.793C224.008 202.15 224.338 205.507 224.668 208.865C226.5 204.422 227.485 200.011 224.223 195.201C223.726 194.662 223.448 194.625 223.171 194.589ZM249.559 186.616C250.18 187.403 250.801 188.191 251.423 188.979C251.83 188.6 252.237 188.221 252.644 187.841C251.267 186.405 250.143 184.436 248.463 183.638C244.467 181.74 239.52 181.493 236.98 185.023C234.731 188.148 234.729 192.89 233.734 196.918C234.184 197.008 234.633 197.098 235.082 197.188C236.218 193.598 236.58 189.444 238.686 186.563C241.309 182.975 245.442 182.598 249.559 186.616ZM245.359 193.901C248.476 192.434 248.517 190.038 246.29 188.16C245.327 187.347 242.014 187.529 241.407 188.401C238.985 191.877 241.844 193.103 245.359 193.901ZM217.582 188.495C220.34 187.597 222.226 185.929 219.971 183.229C219.225 182.335 215.869 182.205 215.085 183.032C212.999 185.233 214.443 187.17 217.582 188.495ZM243.657 169.858C240.95 170.53 239.45 172.094 240.86 174.834C241.334 175.755 243.03 176.624 244.064 176.517C245.078 176.411 246.847 174.856 246.726 174.251C246.417 172.717 245.234 171.36 243.657 169.858ZM273.467 183.759C271.931 183.287 270.348 182.384 268.883 182.547C268.264 182.616 267.365 185.026 267.579 186.191C267.752 187.133 270.113 188.615 270.284 188.465C271.6 187.313 272.618 185.821 273.467 183.759ZM256.19 174.185C256.157 175.709 255.924 177.276 256.237 178.726C256.311 179.072 258.517 179.491 259.189 179.044C260.097 178.441 260.469 177.033 261.071 175.97C259.676 175.241 258.28 174.512 256.19 174.185Z" fill="#CAECED"/>
<path d="M266.117 194.65C268.167 194.652 270.218 194.655 272.864 194.929C274.515 196.087 277.044 196.626 274.219 198.426C273.286 203.039 271.879 207.704 275.922 212.015C275.751 213.887 275.524 216.891 274.863 216.989C271.576 217.481 268.175 217.207 264.814 217.203C265.039 215.481 265.264 213.758 265.22 211.83C265.36 210.55 265.767 209.475 266.431 207.906C266.562 206.867 266.436 206.322 266.309 205.778C266.273 203.721 266.237 201.664 266.17 198.761C266.131 196.826 266.124 195.738 266.117 194.65Z" fill="#1B9190"/>
<path d="M207.662 194.618C208.485 194.847 208.992 195.263 209.84 195.713C209.585 199.882 208.99 204.015 208.394 208.149C208.864 208.207 209.334 208.264 209.803 208.322C210.33 204.802 210.856 201.283 211.383 197.763C212.049 197.828 212.716 197.893 213.382 197.958C213.382 201.769 213.708 205.625 213.186 209.363C213.027 210.499 210.494 212.102 209.117 212.038C207.832 211.978 205.545 209.939 205.593 208.854C205.799 204.154 206.698 199.485 207.662 194.618Z" fill="#C3E9E9"/>
<path d="M256.202 215.621C255.456 206.187 255.021 196.587 254.571 186.675C258.235 186.675 261.028 186.675 264.245 186.675C258.696 194.762 256.554 202.812 259.375 212.167C258.47 213.532 257.491 214.494 256.202 215.621Z" fill="#26898A"/>
<path d="M435.132 308.961C434.052 310.209 433.15 311.168 432.014 312.375C432.663 313.328 433.355 314.344 434.747 316.388C430.847 317.107 427.498 317.724 422.711 318.607C424.028 314.303 424.985 311.174 426.098 307.537C427.822 308.561 428.846 309.169 429.829 309.753C431.532 307.808 433.194 305.909 434.857 304.009C435.329 304.236 435.801 304.463 436.273 304.69C435.952 306.017 435.631 307.345 435.132 308.961Z" fill="#CAECED"/>
<path d="M234.183 183.185C231.456 183.329 228.73 183.473 225.68 183.461C225.35 182.591 225.645 181.612 225.288 181.206C222.651 178.206 222.469 175.151 225.331 172.397C228.193 169.644 231.324 170.157 234.656 173.117C234.75 176.369 234.447 179.07 234.144 181.771C234.144 181.771 234.138 181.74 233.833 181.775C233.746 182.269 233.964 182.727 234.183 183.185ZM227.015 178.411C229.061 180.184 231.11 180.268 231.998 177.528C232.295 176.614 230.69 175.082 229.954 173.833C228.813 175.163 227.673 176.492 227.015 178.411Z" fill="#C3E9E9"/>
<path d="M246.763 328.307C247.245 324.972 247.689 321.994 248.298 317.911C251.527 320.268 254.158 322.188 256.789 324.108C256.835 324.696 256.88 325.284 256.926 325.872C253.525 326.803 250.125 327.734 246.763 328.307Z" fill="#CAECED"/>
<path d="M375.785 225.087C374.843 225.779 373.9 226.471 373.14 226.797C373.954 223.448 374.585 220.465 375.217 217.483C375.713 218.599 376.21 219.716 376.803 221.051C379.075 221.611 381.917 222.312 384.76 223.013C384.64 223.772 384.52 224.531 384.4 225.29C382.042 224.956 379.684 224.622 376.771 224.119C376.072 224.329 375.929 224.708 375.785 225.087Z" fill="#B1E0DF"/>
<path d="M423.067 358.595C414.386 358.924 405.738 358.934 396.628 358.869C396.327 358.422 396.488 358.049 397.026 357.182C405.695 356.772 413.985 356.855 422.749 356.971C423.182 357.427 423.141 357.851 423.067 358.595Z" fill="#3E9795"/>
<path d="M208.791 226.928C208.665 226.808 208.54 226.688 208.232 226.053C207 224.674 205.949 223.809 204.899 222.944C204.899 222.944 205.112 222.948 205.088 222.63C205.758 221.462 206.452 220.613 207.146 219.764C209.134 219.377 211.121 218.99 214.113 218.407C213.118 221.709 212.436 223.969 211.147 226.529C209.957 226.863 209.374 226.895 208.791 226.928Z" fill="#CAECED"/>
<path d="M374.822 217.445C374.585 220.465 373.954 223.448 372.993 226.538C372.662 226.646 372.257 226.455 372.022 225.963C371.405 225.304 371.023 225.135 370.64 224.966C369.242 223.992 367.844 223.018 365.385 221.305C369.165 219.676 371.797 218.542 374.822 217.445Z" fill="#CAECED"/>
<path d="M204.987 223.282C205.949 223.809 207 224.674 208.125 225.816C207.008 227.45 205.936 228.944 204.584 230.114C203.632 230.938 202.3 231.324 201.138 231.905C200.865 231.518 200.593 231.131 200.32 230.744C201.905 228.369 203.49 225.994 204.987 223.282Z" fill="#B1E0DF"/>
<path d="M437.237 296.94C438.364 296.235 439.387 295.886 440.41 295.537C440.089 297.416 439.932 299.348 439.349 301.142C439.168 301.697 437.827 301.874 437.017 302.224C436.825 301.201 436.512 300.181 436.485 299.154C436.469 298.54 436.902 297.915 437.237 296.94Z" fill="#B1E0DF"/>
<path d="M253.652 171.705C253.154 174.886 252.268 178.079 251.304 181.552C250.106 180.939 248.583 180.16 247.745 179.732C248.569 177.206 249.335 174.862 250.134 172.125C251.2 171.729 252.233 171.724 253.652 171.705Z" fill="#3E9795"/>
<path d="M234.486 181.943C234.447 179.07 234.75 176.369 234.949 173.332C235.491 172.359 236.137 171.722 237.098 170.941C238.001 173.668 238.591 176.539 239.315 180.065C238.63 180.378 236.728 181.247 234.486 181.943Z" fill="#3E9795"/>
<path d="M237.131 203.924C237.183 207.525 236.817 211.012 236.452 214.498C236.068 214.5 235.685 214.502 235.301 214.504C235.301 211.109 235.301 207.715 235.577 204.014C236.139 203.742 236.426 203.776 237.131 203.924Z" fill="#3E9795"/>
<path d="M224.592 186.714C227.572 183.65 230.795 183.818 232.363 187.541C229.733 187.355 227.362 186.95 224.592 186.714Z" fill="#C3E9E9"/>
<path d="M223.485 198.518C223.168 202.468 222.659 206.142 222.15 210.272C221.824 206.944 221.441 203.163 221.268 199.373C221.252 199.028 222.585 198.621 223.485 198.518Z" fill="#C3E9E9"/>
<path d="M228.5 210.586C228.185 206.462 228.167 202.028 228.164 197.122C228.386 201.192 228.591 205.735 228.5 210.586Z" fill="#C3E9E9"/>
<path d="M212.527 190.084C215.228 190.132 217.901 190.537 220.574 190.941C220.59 191.182 220.606 191.422 220.622 191.662C217.943 191.662 215.264 191.662 212.104 191.617C211.915 191.194 212.206 190.817 212.527 190.084Z" fill="#C3E9E9"/>
<path d="M226.245 192.463C225.283 191.611 224.375 190.467 223.634 189.116C224.634 189.996 225.467 191.084 226.245 192.463Z" fill="#C3E9E9"/>
<path d="M206.769 219.737C206.452 220.613 205.758 221.462 204.983 222.647C204.323 222.398 203.744 221.812 203.165 221.226C204.241 220.721 205.316 220.216 206.769 219.737Z" fill="#B1E0DF"/>
<path d="M219.371 194.684C219.725 194.373 220.229 194.228 220.879 194.255C220.523 194.568 220.021 194.709 219.371 194.684Z" fill="#C3E9E9"/>
<path d="M214.698 194.173C215.225 194.007 215.908 194.056 216.836 194.346C216.34 194.521 215.597 194.454 214.698 194.173Z" fill="#C3E9E9"/>
<path d="M208.886 227.244C209.374 226.895 209.957 226.863 210.979 226.832C210.606 227.077 209.793 227.319 208.886 227.244Z" fill="#B1E0DF"/>
<path d="M223.358 194.756C223.448 194.625 223.726 194.662 224.009 194.897C223.858 195.039 223.701 194.981 223.358 194.756Z" fill="#C3E9E9"/>
<path d="M224.018 212.046C224.127 211.857 224.446 211.849 225.242 211.866C225.223 212.003 224.725 212.116 224.018 212.046Z" fill="#C3E9E9"/>
<path d="M370.803 225.223C371.023 225.135 371.405 225.304 371.896 225.778C371.659 225.882 371.313 225.681 370.803 225.223Z" fill="#B1E0DF"/>
<path d="M594.755 664.878C607.911 672.483 611.007 684.414 609.869 697.99C608.942 709.039 603.831 717.574 593.26 722.141C573.437 730.703 552.826 717.749 551.949 696.261C551.516 685.644 553.764 675.911 562.14 668.775C571.858 660.495 582.89 660.002 594.755 664.878Z" fill="#F9FDFD"/>
<path d="M160.642 689.319C160.347 694.212 160.608 698.824 159.546 703.107C156.1 717.005 144.479 725.244 130.29 724.417C115.53 723.557 105.044 714.34 103.486 699.729C102.866 693.917 103.292 687.617 104.904 682.018C108.849 668.319 120.976 660.749 135.124 662.061C149.403 663.385 158.565 673.035 160.642 689.319Z" fill="#F9FDFD"/>
<path d="M492.623 677.283C496.519 686.44 500.238 695.262 504.245 704.766C493.012 704.766 482.924 704.766 471.915 704.766C477.254 692.434 482.399 680.551 488.09 667.408C489.905 671.383 491.176 674.166 492.623 677.283Z" fill="#F3FBFA"/>
<path d="M300.996 786.192C303.433 797.767 296.929 806.178 286.02 806.089C278.2 806.026 271.99 801.036 270.631 793.723C269.325 786.693 273.277 779.542 280.015 776.745C286.767 773.941 295.086 776.308 299.117 782.255C299.853 783.341 300.294 784.628 300.996 786.192Z" fill="#F9F9F9"/>
<path d="M486.554 778.159C490.076 773.653 494.524 775.314 497.985 776.937C499.898 777.834 501.523 781.747 501.346 784.159C501.049 788.226 497.388 789.316 493.592 789.463C486.588 789.734 486.589 789.784 486.552 782.574C486.545 781.251 486.545 779.929 486.554 778.159Z" fill="#F1FAF9"/>
<path d="M425.917 793.771C426.989 793.347 428.041 792.955 428.785 793.277C429.36 793.526 429.605 794.648 429.896 795.419C430.347 796.618 430.713 797.848 431.271 799.535C428.648 799.535 426.481 799.535 423.664 799.535C424.487 797.409 425.127 795.76 425.917 793.771Z" fill="#CAECED"/>
<path d="M595.169 799.752C592.304 799.955 590.672 799.462 592.064 796.493C592.756 795.017 593.484 793.558 594.239 792.002C598.698 796.041 599.015 798.268 595.169 799.752Z" fill="#CAECED"/>
<path d="M249.328 186.341C245.442 182.598 241.309 182.975 238.686 186.563C236.58 189.444 236.218 193.598 235.082 197.188C234.633 197.098 234.184 197.008 233.734 196.918C234.729 192.89 234.731 188.148 236.98 185.023C239.52 181.493 244.467 181.74 248.463 183.638C250.143 184.436 251.267 186.405 252.644 187.841C252.237 188.221 251.83 188.6 251.423 188.979C250.801 188.191 250.18 187.403 249.328 186.341Z" fill="#3E9795"/>
<path d="M244.985 193.99C241.844 193.103 238.985 191.877 241.407 188.401C242.014 187.529 245.327 187.347 246.29 188.16C248.517 190.038 248.476 192.434 244.985 193.99Z" fill="#26898A"/>
<path d="M217.219 188.438C214.443 187.17 212.999 185.233 215.085 183.032C215.869 182.205 219.225 182.335 219.971 183.229C222.226 185.929 220.34 187.597 217.219 188.438Z" fill="#3E9795"/>
<path d="M244.029 169.895C245.234 171.36 246.417 172.717 246.726 174.251C246.847 174.856 245.078 176.411 244.064 176.517C243.03 176.624 241.334 175.755 240.86 174.834C239.45 172.094 240.95 170.53 244.029 169.895Z" fill="#26898A"/>
<path d="M273.597 184.097C272.618 185.821 271.6 187.313 270.284 188.465C270.113 188.615 267.752 187.133 267.579 186.191C267.365 185.026 268.264 182.616 268.883 182.547C270.348 182.384 271.931 183.287 273.597 184.097Z" fill="#26898A"/>
<path d="M265.73 194.581C266.124 195.738 266.131 196.826 266.136 198.32C265.174 199.855 263.717 200.848 263.369 202.14C262.811 204.214 262.985 206.486 262.778 209.824C259.302 202.996 260.655 197.026 265.73 194.581Z" fill="#3E9795"/>
<path d="M256.537 173.984C258.28 174.512 259.676 175.241 261.071 175.97C260.469 177.033 260.097 178.441 259.189 179.044C258.517 179.491 256.311 179.072 256.237 178.726C255.924 177.276 256.157 175.709 256.537 173.984Z" fill="#26898A"/>
<path d="M274.601 198.489C277.044 196.626 274.515 196.087 273.303 194.953C274.894 195.505 276.642 196.303 278.391 197.102C278.228 197.586 278.066 198.069 277.904 198.552C276.93 198.552 275.957 198.552 274.601 198.489Z" fill="#3E9795"/>
<path d="M266.229 206.096C266.436 206.322 266.562 206.867 266.497 207.562C266.253 207.279 266.201 206.847 266.229 206.096Z" fill="#3E9795"/>
<path d="M234.312 182.823C233.964 182.727 233.746 182.269 233.849 181.776C234.26 181.98 234.351 182.22 234.312 182.823Z" fill="#3E9795"/>
<path d="M363.148 332.639C363.437 328.128 363.069 323.609 364.603 319.87C366.614 314.964 372.791 315.437 377.329 320.272C382.579 325.866 380.377 333.894 371.53 336.085C373.42 333.212 374.67 331.313 375.321 330.324C373.539 328.28 372.073 326.6 369.692 323.871C369.307 328.336 368.995 331.955 368.592 336.63C366.567 335.222 364.953 334.1 363.148 332.639Z" fill="#188E8D"/>
<path d="M226.773 178.117C227.673 176.492 228.813 175.163 229.954 173.833C230.69 175.082 232.295 176.614 231.998 177.528C231.11 180.268 229.061 180.184 226.773 178.117Z" fill="#26898A"/>
<path d="M375.986 224.889C375.929 224.708 376.072 224.329 376.393 224.115C376.442 224.417 376.314 224.554 375.986 224.889Z" fill="#0E8D8B"/>
<rect x="200.144" y="166.745" width="84" height="70" fill="#0E8D8B"/>
<rect x="235.144" y="313.745" width="32" height="23" fill="#0E8D8B"/>
<rect x="360.144" y="208.745" width="32" height="23" fill="#0E8D8B"/>
<rect x="353.144" y="290.745" width="92" height="72" fill="#0E8D8B"/>
</svg>
