<svg width="2027" height="602" viewBox="0 0 2027 602" fill="none" xmlns="http://www.w3.org/2000/svg">
<path d="M13.0793 335.972C-7.95066 283.667 -2.34367 232.366 20.7823 183.389C59.2967 101.822 124.946 56.7879 214.934 50.0486C275.131 45.5403 329.303 63.6582 375.679 102.648C420.936 140.697 445.837 190.052 454.492 248.234C460.603 289.312 450.059 326.777 431.688 362.86C414.575 396.47 392.255 426.504 368.29 455.393C334.301 496.364 297.77 534.906 257.586 569.887C238.833 586.212 216.553 585.654 198.224 568.754C157.526 531.229 117.949 492.613 83.3317 449.258C58.2311 417.822 35.0116 385.132 18.2238 348.32C16.4284 344.383 14.8897 340.328 13.0793 335.972ZM116.261 222.948C116.261 222.948 116.048 222.944 116.224 223.62C114.639 225.994 113.054 228.369 111.469 230.744C111.741 231.131 112.014 231.518 112.287 231.905C113.449 231.324 114.781 230.938 115.733 230.114C117.085 228.944 118.157 227.45 119.563 226.569C119.689 226.688 119.814 226.808 120.129 227.561C120.942 227.319 121.755 227.077 122.904 226.229C123.585 223.969 124.267 221.709 125.262 218.407C122.27 218.99 120.283 219.377 117.54 219.71C116.465 220.216 115.39 220.721 114.314 221.226C114.893 221.812 115.472 222.398 116.261 222.948ZM282.115 225.48C282.462 225.681 282.808 225.882 283.406 226.455C283.406 226.455 283.811 226.646 284.107 227.163C285.049 226.471 285.992 225.779 287.336 224.692C287.463 224.554 287.591 224.417 288.475 224.288C290.833 224.622 293.191 224.956 295.549 225.29C295.669 224.531 295.789 223.772 295.908 223.013C293.066 222.312 290.224 221.611 287.952 221.051C287.358 219.716 286.862 218.599 285.577 217.408C282.945 218.542 280.314 219.676 276.534 221.305C278.993 223.018 280.391 223.992 282.115 225.48ZM145.407 172.566C142.473 170.157 139.341 169.644 136.48 172.397C133.618 175.151 133.8 178.206 136.437 181.206C136.794 181.612 136.499 182.591 135.772 183.076C132.681 179.918 129.397 176.741 124.775 180.101C121.206 182.695 121.496 186.228 123.647 190.44C123.355 190.817 123.064 191.194 122.184 191.699C121.165 192.61 120.146 193.521 118.495 194.805C117.847 199.485 116.948 204.154 116.742 208.854C116.694 209.939 118.981 211.978 120.266 212.038C121.643 212.102 124.176 210.499 124.335 209.363C124.857 205.625 124.531 201.769 124.531 197.958C123.865 197.893 123.198 197.828 122.532 197.763C122.005 201.283 121.479 204.802 120.952 208.322C120.483 208.264 120.013 208.207 119.543 208.149C120.139 204.015 120.734 199.882 121.838 195.432C123.122 194.941 124.407 194.45 126.003 194.388C126.746 194.454 127.489 194.521 128.945 194.698C129.42 194.638 129.896 194.578 130.668 194.85C131.17 194.709 131.672 194.568 132.88 194.574C133.36 194.579 133.84 194.584 134.693 194.923C134.85 194.981 135.007 195.039 135.592 195.704C138.634 200.011 137.648 204.422 135.817 208.865C135.487 205.507 135.157 202.15 134.44 198.243C133.734 198.621 132.401 199.028 132.417 199.373C132.59 203.163 132.973 206.944 133.507 211.231C133.99 211.442 134.474 211.653 135.377 212.228C135.874 212.116 136.372 212.003 137.445 212.069C138.081 211.678 138.717 211.287 139.945 210.278C139.74 205.735 139.535 201.192 139.34 195.999C138.674 194.917 138.007 193.835 137.448 192.173C136.616 191.084 135.783 189.996 135.193 188.257C135.243 187.799 135.292 187.341 136.14 186.545C138.511 186.95 140.882 187.355 143.054 188.598C142.999 196.47 142.937 204.341 142.895 212.213C142.891 213.037 142.684 214.132 143.114 214.636C144.288 216.01 146.012 218.311 147.043 218.084C148.637 217.734 150.577 215.794 151.029 214.157C151.712 211.687 151.44 208.875 151.138 206.259C151.043 205.436 149.55 204.774 147.862 203.809C147.575 203.776 147.288 203.742 147.197 203.006C149.952 199.994 157.733 198.972 161.257 201.161C164.088 202.919 164.978 210.001 162.583 215.229C162.068 211.217 161.639 207.877 161.21 204.537C160.431 204.619 159.651 204.701 158.872 204.783C158.872 207.512 158.533 210.3 158.987 212.951C159.309 214.826 160.352 217.518 161.724 218.003C163.067 218.478 165.235 216.621 167.66 215.455C168.64 214.494 169.619 213.532 171.198 212.537C172.833 212.233 174.467 211.929 176.637 212.036C176.413 213.758 176.188 215.481 175.963 217.203C179.324 217.207 182.725 217.481 186.012 216.989C186.673 216.891 186.9 213.887 188.035 212.202C189.601 211.006 192.09 210.101 192.574 208.564C194.866 201.283 192.507 195.053 186.279 190.401C186.446 189.993 186.565 189.526 186.807 189.136C189.021 185.573 188.424 182.205 185.185 179.935C182.11 177.779 178.979 178.533 176.379 181.504C175.671 182.313 174.195 182.449 173.071 182.894C175.233 179.343 176.889 176.265 174.108 172.856C171.633 169.82 168.464 169.778 164.414 171.718C163.382 171.724 162.349 171.729 160.936 171.16C156.724 165.721 153.193 165.618 147.933 171.085C147.286 171.722 146.64 172.359 145.407 172.566ZM306.377 358.863C295.413 358.902 284.45 358.898 273.487 359.025C271.842 359.044 270.203 359.672 268.561 360.018C268.61 360.605 268.658 361.191 268.707 361.777C270.228 362.019 271.747 362.461 273.269 362.471C283.401 362.541 293.535 362.516 303.668 362.528C313.136 362.538 322.605 362.585 332.073 362.551C334.654 362.542 337.642 362.535 334.249 358.276C334.29 357.851 334.331 357.427 334.945 356.401C336.066 353.767 334.432 353.684 332.525 353.711C327.867 353.777 323.191 354.034 318.552 353.739C313.597 353.425 308.676 352.566 303.739 351.946C303.798 351.486 303.856 351.026 303.915 350.567C312.054 350.567 320.196 350.679 328.33 350.494C330.575 350.443 332.799 349.508 335.033 348.978C333.076 347.949 331.12 346.92 328.598 345.594C328.598 342.977 328.598 339.538 328.598 336.007C329.746 335.662 330.923 335.308 331.419 335.159C329.978 331.191 328.603 327.554 327.345 323.877C326.747 322.126 326.579 318.868 325.858 318.764C323.417 318.41 320.815 319.16 318.275 319.489C316.605 319.656 314.12 318.587 313.129 319.381C307.726 323.713 302.69 328.504 297.528 333.137C303.014 338.749 299.384 344.934 300.88 351.013C295.808 350.468 291.512 350.228 287.322 349.428C285.977 349.172 283.913 347.43 283.923 346.384C283.946 344.068 284.347 340.617 285.875 339.646C293.79 334.62 295.477 331.323 293.275 322.342C292.193 317.927 287.09 313.502 282.483 313.171C277.866 312.839 274.244 314.787 272.322 318.938C271.397 320.936 271.631 323.446 271.183 325.693C269.703 333.109 270.585 335.698 277.383 338.883C281.627 340.871 280.158 344.118 279.855 346.89C279.759 347.772 276.926 348.514 275.255 349.023C273.245 349.636 271.139 349.931 269.074 350.364C269.221 350.608 269.367 350.853 269.513 351.097C282.527 352.96 295.54 354.824 307.797 357.676C307.636 358.049 307.476 358.422 306.377 358.863ZM160.331 250.785C164.441 250.812 166.721 248.603 166.585 244.666C166.447 240.65 163.752 238.94 159.817 238.951C153.818 238.969 147.819 238.878 141.82 238.867C136.08 238.856 134.404 240.464 134.371 246.292C134.319 255.624 134.35 264.956 134.406 274.289C134.451 281.947 135.864 283.398 143.406 283.423C161.738 283.486 180.073 283.697 198.399 283.391C203.591 283.304 204.731 284.895 204.714 289.85C204.557 335.012 204.669 380.174 204.682 425.337C204.682 426.895 204.457 428.453 204.291 430.622C198.584 429.388 193.509 428.516 188.557 427.186C100.993 403.655 54.4331 315.023 80.3476 231.411C83.6272 220.83 89.2644 210.998 93.2677 200.61C94.3148 197.892 94.3778 193.746 92.9631 191.44C91.6731 189.337 87.4053 187.412 85.1061 187.995C82.2448 188.721 79.1413 191.631 77.7154 194.406C55.8362 236.99 50.2491 281.555 64.0462 327.618C99.4938 445.964 246.919 488.301 340.071 407.17C394.47 359.79 413.763 284.564 388.611 217.012C385.482 208.61 381.413 200.53 377.366 192.509C374.874 187.57 369.783 186.197 365.598 188.593C361.489 190.945 360.334 195.471 362.617 200.325C362.971 201.078 363.385 201.803 363.781 202.537C379.534 231.732 386.042 262.919 381.485 295.734C373.169 355.636 340.593 397.494 285.076 421.399C273.74 426.28 261.767 428.983 249.036 430.565C248.938 428.507 248.816 426.896 248.792 425.283C248.684 418.119 248.649 410.953 248.498 403.79C248.392 398.742 246.204 395.872 242.585 396.23C238.207 396.664 236.94 399.591 237.022 403.642C237.146 409.803 236.846 415.977 237.098 422.13C237.243 425.677 236.035 426.922 232.543 426.679C229.06 426.436 225.509 426.281 222.057 426.685C217.252 427.247 216.254 425.274 216.267 420.801C216.402 374.306 216.331 327.809 216.325 281.313C216.324 273.226 214.864 271.781 206.697 271.762C188.032 271.72 169.367 271.67 150.702 271.576C148.681 271.566 146.022 272.284 146.014 268.785C146.001 262.998 146.011 257.212 146.011 250.787C150.874 250.787 155.154 250.787 160.331 250.785ZM237.094 199.245C237.12 213.243 237.156 227.241 237.168 241.239C237.175 249.754 238.524 251.203 246.961 251.215C265.459 251.243 283.958 251.321 302.453 251.12C306.782 251.072 309.05 251.938 308.521 256.833C308.165 260.125 308.257 263.514 308.578 266.818C308.973 270.888 307.339 271.847 303.455 271.811C284.626 271.636 265.794 271.743 246.963 271.777C238.478 271.792 237.133 273.119 237.124 281.697C237.094 312.36 237.104 343.023 237.107 373.686C237.107 375.518 236.534 377.768 237.377 379.087C238.721 381.19 240.881 383.762 242.987 384.057C244.548 384.276 247.127 381.497 248.22 379.491C249.153 377.776 248.713 375.262 248.716 373.101C248.752 345.274 248.865 317.446 248.667 289.62C248.634 284.939 249.71 283.347 254.661 283.426C273.987 283.734 293.321 283.603 312.652 283.596C318.56 283.594 320.15 282.023 320.181 276.273C320.228 267.274 320.243 258.275 320.234 249.277C320.225 240.557 318.801 239.147 310.08 239.12C291.583 239.062 273.084 238.862 254.59 239.068C250.068 239.118 248.582 237.999 248.622 233.311C248.79 213.817 248.587 194.32 248.471 174.824C248.434 168.703 246.864 167.088 240.784 167.005C231.62 166.88 222.454 166.843 213.289 166.859C206.073 166.873 204.553 168.525 204.57 175.733C204.615 195.231 204.534 214.729 204.729 234.224C204.766 237.962 203.677 239.243 199.932 239.037C194.948 238.763 189.936 239.066 184.939 238.972C180.828 238.895 177.514 239.8 177.191 244.658C176.924 248.685 179.605 251.017 184.853 251.111C192.349 251.244 199.85 251.178 207.348 251.12C214.84 251.061 216.289 249.549 216.292 241.918C216.298 222.421 216.235 202.923 216.368 183.426C216.379 181.822 217.573 178.889 218.362 178.839C224.419 178.452 230.511 178.626 236.28 178.626C236.708 179.655 236.939 179.955 236.943 180.258C237.008 186.254 237.046 192.25 237.094 199.245ZM216.449 121.214C248.581 119.134 278.692 125.866 306.59 142.042C321.126 150.47 333.779 161.179 344.844 173.838C348.18 177.653 353.182 177.885 356.411 175.015C359.837 171.971 360.064 167.584 356.935 163.367C355.945 162.033 354.793 160.818 353.692 159.569C343.133 147.594 330.683 137.861 317.24 129.412C257.257 91.71 174.645 97.2419 119.983 142.822C112.354 149.184 105.554 156.611 98.9031 164.024C97.3204 165.788 96.9652 169.779 97.7512 172.189C98.3878 174.141 101.652 176.53 103.63 176.426C106.153 176.293 109.099 174.341 110.926 172.324C139.004 141.327 173.932 124.505 216.449 121.214ZM346.459 308.672C346.78 307.345 347.101 306.017 347.422 304.69C346.95 304.463 346.478 304.236 346.006 304.009C344.343 305.909 342.681 307.808 340.978 309.754C339.995 309.169 338.971 308.561 337.247 307.537C336.134 311.174 335.177 314.303 333.86 318.607C338.647 317.724 341.996 317.107 345.896 316.388C344.504 314.344 343.812 313.328 343.163 312.375C344.299 311.168 345.201 310.209 346.459 308.672ZM157.874 328.665C161.274 327.734 164.674 326.803 168.075 325.872C168.029 325.284 167.984 324.696 167.938 324.108C165.307 322.188 162.676 320.268 159.447 317.911C158.838 321.994 158.394 324.972 157.874 328.665ZM348.282 297.296C348.051 297.915 347.618 298.54 347.634 299.154C347.661 300.181 347.974 301.201 348.166 302.224C348.976 301.874 350.317 301.697 350.497 301.142C351.081 299.348 351.238 297.416 351.559 295.537C350.536 295.886 349.513 296.235 348.282 297.296Z" fill="#0E8D8B"/>
<path d="M469.647 177.574C428.819 81.972 356.422 29.3609 254.092 17.0891C248.49 16.4173 242.782 16.593 237.121 16.4674C230.666 16.3242 226.63 13.2219 226.666 8.29753C226.704 3.20403 230.58 0.0343798 237.005 0.00290884C271.823 -0.167661 305.143 7.16851 337.118 20.6186C393.497 44.3332 437.391 82.4437 468.021 135.504C488.875 171.628 499.995 210.717 502.717 252.268C502.841 254.164 503.142 256.048 503.39 258.188C504.454 257.808 504.937 257.725 505.321 257.484C508.152 255.708 512.179 251.738 513.552 252.509C517.58 254.774 520.637 258.844 523.833 262.422C524.253 262.893 523.623 264.994 522.876 265.708C514.563 273.642 506.139 281.46 497.726 289.289C495.183 291.656 492.609 291.496 490.265 289.031C482.692 281.066 475.065 273.146 467.752 264.946C466.845 263.929 467.607 261.324 467.811 259.478C467.868 258.962 468.692 258.531 469.164 258.061C476.818 250.427 476.818 250.426 485.807 257.007C485.095 229.293 479.123 203.287 469.647 177.574Z" fill="#58595A"/>
<path d="M154.746 594.281C136.143 576.375 117.252 559.238 99.5998 540.908C82.1261 522.763 65.9027 503.414 49.1283 484.589C49.0646 484.65 48.7122 484.829 48.6185 485.098C47.6156 487.981 47.0527 493.091 45.6047 493.352C41.3691 494.116 36.749 493.153 32.3662 492.378C31.4111 492.209 30.0498 489.921 30.1746 488.748C31.407 477.164 32.8579 465.601 34.3783 454.05C34.7964 450.874 36.9147 449.493 40.1015 449.977C51.1291 451.653 62.1505 453.368 73.1787 455.038C76.2443 455.503 77.5851 457.014 76.7622 460.196C75.7345 464.171 76.0396 469.69 73.5049 471.733C71.0365 473.722 65.7106 472.165 60.8148 472.165C62.3655 474.417 63.5257 476.349 64.9216 478.092C96.012 516.919 129.832 553.115 168.09 585.029C174.708 590.55 175.938 594.814 172.237 599.147C168.761 603.216 164.552 602.636 158 597.166C156.978 596.313 156 595.408 154.746 594.281Z" fill="#58585A"/>
<path d="M159.882 250.786C155.153 250.787 150.874 250.787 146.011 250.787C146.011 257.212 146.001 262.998 146.014 268.784C146.022 272.284 148.681 271.566 150.702 271.576C169.367 271.67 188.032 271.72 206.697 271.762C214.864 271.781 216.324 273.226 216.325 281.313C216.331 327.809 216.402 374.306 216.267 420.801C216.254 425.274 217.252 427.247 222.057 426.685C225.509 426.281 229.06 426.436 232.543 426.679C236.035 426.922 237.243 425.677 237.098 422.13C236.846 415.977 237.146 409.803 237.022 403.642C236.94 399.591 238.206 396.664 242.585 396.23C246.204 395.872 248.392 398.742 248.498 403.79C248.649 410.953 248.684 418.119 248.792 425.283C248.816 426.896 248.938 428.507 249.036 430.565C261.767 428.983 273.74 426.28 285.076 421.399C340.593 397.494 373.169 355.635 381.485 295.734C386.042 262.919 379.534 231.732 363.781 202.536C363.385 201.803 362.971 201.078 362.617 200.325C360.334 195.471 361.489 190.945 365.598 188.593C369.783 186.197 374.874 187.57 377.366 192.509C381.413 200.53 385.482 208.61 388.611 217.012C413.763 284.564 394.47 359.79 340.071 407.17C246.919 488.301 99.4938 445.963 64.0462 327.618C50.2491 281.555 55.8362 236.99 77.7154 194.406C79.1413 191.631 82.2448 188.721 85.1061 187.995C87.4052 187.412 91.6731 189.337 92.9631 191.44C94.3778 193.746 94.3148 197.892 93.2677 200.61C89.2643 210.998 83.6272 220.83 80.3476 231.411C54.433 315.023 100.993 403.655 188.557 427.186C193.509 428.516 198.584 429.388 204.291 430.622C204.457 428.453 204.682 426.895 204.682 425.337C204.669 380.174 204.557 335.012 204.714 289.85C204.731 284.895 203.591 283.304 198.399 283.391C180.073 283.697 161.738 283.486 143.406 283.423C135.864 283.398 134.451 281.947 134.406 274.289C134.35 264.956 134.319 255.624 134.371 246.292C134.404 240.464 136.08 238.856 141.82 238.867C147.819 238.878 153.818 238.969 159.817 238.951C163.752 238.94 166.447 240.65 166.585 244.666C166.721 248.603 164.441 250.811 159.882 250.786Z" fill="#F3FBFA"/>
<path d="M237.092 198.745C237.046 192.25 237.008 186.254 236.943 180.258C236.939 179.955 236.708 179.655 236.28 178.626C230.511 178.626 224.419 178.452 218.362 178.839C217.573 178.889 216.379 181.822 216.368 183.426C216.235 202.923 216.298 222.421 216.292 241.918C216.289 249.549 214.84 251.061 207.348 251.12C199.85 251.178 192.349 251.244 184.853 251.111C179.605 251.017 176.924 248.685 177.191 244.658C177.514 239.8 180.828 238.895 184.939 238.972C189.936 239.066 194.948 238.763 199.932 239.037C203.677 239.243 204.766 237.962 204.729 234.224C204.533 214.729 204.615 195.231 204.57 175.733C204.553 168.525 206.073 166.873 213.289 166.859C222.454 166.843 231.62 166.88 240.784 167.005C246.864 167.088 248.434 168.703 248.471 174.824C248.587 194.32 248.79 213.817 248.622 233.311C248.582 237.999 250.068 239.118 254.59 239.068C273.084 238.862 291.583 239.062 310.08 239.12C318.801 239.147 320.225 240.557 320.234 249.276C320.243 258.275 320.228 267.274 320.181 276.273C320.15 282.023 318.56 283.594 312.652 283.596C293.321 283.603 273.987 283.734 254.661 283.426C249.71 283.347 248.634 284.939 248.667 289.62C248.865 317.446 248.752 345.274 248.716 373.101C248.713 375.262 249.153 377.776 248.219 379.491C247.127 381.497 244.548 384.276 242.987 384.057C240.881 383.762 238.721 381.19 237.377 379.087C236.534 377.768 237.107 375.518 237.107 373.686C237.104 343.023 237.094 312.36 237.124 281.697C237.133 273.119 238.478 271.792 246.963 271.777C265.794 271.743 284.626 271.636 303.455 271.811C307.339 271.847 308.973 270.888 308.578 266.818C308.257 263.514 308.165 260.125 308.521 256.833C309.05 251.938 306.782 251.072 302.453 251.12C283.958 251.321 265.459 251.243 246.961 251.215C238.524 251.203 237.175 249.754 237.168 241.239C237.156 227.241 237.12 213.243 237.092 198.745Z" fill="#F1FAF9"/>
<path d="M215.988 121.245C173.932 124.505 139.004 141.327 110.926 172.324C109.099 174.341 106.153 176.293 103.63 176.426C101.652 176.53 98.3878 174.141 97.7512 172.189C96.9652 169.779 97.3204 165.788 98.9031 164.024C105.554 156.611 112.354 149.184 119.983 142.822C174.645 97.2419 257.257 91.71 317.24 129.412C330.683 137.861 343.133 147.594 353.692 159.569C354.793 160.818 355.945 162.033 356.935 163.367C360.064 167.584 359.837 171.971 356.411 175.015C353.182 177.885 348.18 177.653 344.844 173.838C333.779 161.179 321.126 150.47 306.59 142.042C278.692 125.866 248.581 119.134 215.988 121.245Z" fill="#F4FBFA"/>
<path d="M134.32 194.589C133.84 194.584 133.36 194.579 132.381 194.328C131.378 194.228 130.874 194.373 130.371 194.518C129.896 194.578 129.42 194.638 128.342 194.401C127.057 194.056 126.374 194.007 125.691 193.959C124.407 194.45 123.122 194.941 121.243 195.556C120.141 195.263 119.634 194.847 119.127 194.432C120.146 193.521 121.165 192.61 122.959 191.681C126.413 191.662 129.092 191.662 131.771 191.662C131.755 191.422 131.739 191.182 131.723 190.941C129.05 190.537 126.377 190.132 123.704 189.727C121.496 186.228 121.206 182.694 124.775 180.101C129.397 176.741 132.681 179.918 136.462 183.347C139.879 183.473 142.605 183.329 145.461 182.823C145.5 182.22 145.409 181.98 145.303 181.74C145.287 181.74 145.293 181.771 145.635 181.943C147.877 181.247 149.779 180.378 150.464 180.065C149.74 176.539 149.15 173.668 148.561 170.797C153.193 165.618 156.724 165.721 161.092 171.839C160.484 174.862 159.718 177.206 158.894 179.732C159.732 180.16 161.255 180.939 162.453 181.552C163.417 178.079 164.303 174.886 165.188 171.692C168.464 169.778 171.633 169.82 174.108 172.856C176.889 176.265 175.233 179.343 173.071 182.894C174.195 182.449 175.671 182.313 176.379 181.504C178.979 178.533 182.11 177.779 185.185 179.935C188.424 182.205 189.021 185.573 186.807 189.136C186.565 189.526 186.446 189.993 186.279 190.401C192.507 195.053 194.866 201.283 192.574 208.564C192.09 210.101 189.601 211.006 187.425 212.005C183.028 207.704 184.435 203.039 185.75 198.489C187.105 198.552 188.079 198.552 189.052 198.552C189.215 198.069 189.377 197.586 189.54 197.102C187.791 196.303 186.043 195.505 183.855 194.682C181.367 194.655 179.316 194.652 176.878 194.581C171.804 197.026 170.451 202.996 173.927 209.824C174.134 206.486 173.959 204.214 174.518 202.14C174.866 200.848 176.323 199.855 177.316 199.167C177.386 201.664 177.422 203.721 177.378 206.096C177.35 206.847 177.402 207.279 177.389 208.056C176.916 209.475 176.509 210.55 176.101 211.625C174.467 211.929 172.833 212.233 170.823 212.15C167.703 202.812 169.845 194.762 175.394 186.675C172.177 186.675 169.383 186.675 165.72 186.675C166.17 196.587 166.605 206.187 167.041 215.787C165.235 216.621 163.067 218.478 161.724 218.003C160.352 217.518 159.309 214.826 158.987 212.951C158.533 210.3 158.872 207.512 158.872 204.783C159.651 204.701 160.431 204.619 161.21 204.537C161.639 207.877 162.068 211.217 162.583 215.229C164.978 210.001 164.088 202.919 161.257 201.161C157.733 198.972 149.952 199.994 146.823 203.663C146.45 207.715 146.45 211.109 146.45 214.504C146.834 214.502 147.217 214.5 147.601 214.498C147.966 211.012 148.332 207.525 148.697 204.038C149.55 204.774 151.043 205.436 151.138 206.259C151.44 208.875 151.712 211.687 151.029 214.157C150.577 215.794 148.637 217.734 147.043 218.084C146.012 218.311 144.288 216.01 143.114 214.636C142.684 214.132 142.891 213.037 142.895 212.213C142.937 204.341 142.999 196.47 143.412 187.96C141.943 183.817 138.721 183.65 135.342 186.884C135.292 187.341 135.243 187.799 134.904 188.791C135.524 190.467 136.432 191.61 137.34 192.754C138.007 193.835 138.674 194.917 139.319 196.797C139.316 202.028 139.334 206.462 139.352 210.895C138.717 211.287 138.081 211.678 136.679 211.956C135.595 211.849 135.276 211.857 134.958 211.864C134.474 211.653 133.99 211.442 133.402 210.524C133.808 206.142 134.317 202.468 134.827 198.793C135.157 202.15 135.487 205.507 135.817 208.865C137.648 204.422 138.634 200.011 135.372 195.201C134.875 194.662 134.597 194.625 134.32 194.589ZM160.708 186.616C161.329 187.403 161.95 188.191 162.572 188.979C162.979 188.6 163.385 188.221 163.792 187.841C162.416 186.405 161.292 184.436 159.612 183.638C155.616 181.74 150.669 181.493 148.129 185.023C145.88 188.148 145.878 192.89 144.883 196.918C145.333 197.008 145.782 197.098 146.231 197.188C147.367 193.598 147.729 189.444 149.835 186.563C152.458 182.975 156.591 182.598 160.708 186.616ZM156.508 193.901C159.625 192.434 159.666 190.038 157.439 188.16C156.476 187.347 153.163 187.529 152.556 188.401C150.134 191.877 152.993 193.103 156.508 193.901ZM128.731 188.495C131.488 187.597 133.375 185.929 131.12 183.229C130.374 182.335 127.018 182.205 126.234 183.032C124.148 185.233 125.592 187.17 128.731 188.495ZM154.806 169.858C152.099 170.53 150.599 172.094 152.009 174.834C152.483 175.755 154.179 176.624 155.212 176.517C156.227 176.411 157.996 174.856 157.875 174.251C157.566 172.717 156.382 171.36 154.806 169.858ZM184.616 183.759C183.08 183.287 181.497 182.384 180.032 182.547C179.413 182.616 178.514 185.026 178.728 186.191C178.901 187.133 181.262 188.615 181.433 188.465C182.749 187.313 183.766 185.821 184.616 183.759ZM167.339 174.185C167.306 175.709 167.073 177.276 167.385 178.726C167.46 179.072 169.666 179.491 170.338 179.044C171.246 178.441 171.618 177.033 172.22 175.97C170.825 175.241 169.429 174.512 167.339 174.185Z" fill="#CAECED"/>
<path d="M177.266 194.65C179.316 194.652 181.367 194.655 184.013 194.929C185.664 196.087 188.193 196.626 185.368 198.426C184.435 203.039 183.028 207.704 187.071 212.015C186.9 213.887 186.673 216.891 186.012 216.989C182.725 217.481 179.324 217.207 175.963 217.203C176.188 215.481 176.413 213.758 176.369 211.83C176.509 210.55 176.916 209.475 177.58 207.906C177.711 206.867 177.585 206.322 177.458 205.778C177.422 203.721 177.386 201.664 177.319 198.761C177.28 196.826 177.273 195.738 177.266 194.65Z" fill="#1B9190"/>
<path d="M118.811 194.618C119.634 194.847 120.141 195.263 120.989 195.713C120.734 199.882 120.139 204.015 119.543 208.149C120.013 208.207 120.483 208.264 120.952 208.322C121.479 204.802 122.005 201.283 122.532 197.763C123.198 197.828 123.865 197.893 124.531 197.958C124.531 201.769 124.857 205.625 124.335 209.363C124.176 210.499 121.643 212.102 120.266 212.038C118.981 211.978 116.694 209.939 116.742 208.854C116.948 204.154 117.847 199.485 118.811 194.618Z" fill="#C3E9E9"/>
<path d="M167.35 215.621C166.605 206.187 166.17 196.587 165.72 186.675C169.383 186.675 172.177 186.675 175.394 186.675C169.845 194.762 167.703 202.812 170.524 212.167C169.619 213.532 168.64 214.494 167.35 215.621Z" fill="#26898A"/>
<path d="M346.281 308.961C345.201 310.209 344.299 311.168 343.163 312.375C343.812 313.328 344.504 314.344 345.896 316.388C341.996 317.107 338.647 317.724 333.86 318.607C335.177 314.303 336.134 311.174 337.247 307.537C338.971 308.561 339.995 309.169 340.978 309.753C342.681 307.808 344.343 305.909 346.006 304.009C346.478 304.236 346.95 304.463 347.422 304.69C347.101 306.017 346.78 307.345 346.281 308.961Z" fill="#CAECED"/>
<path d="M145.332 183.185C142.605 183.329 139.879 183.473 136.829 183.461C136.499 182.591 136.794 181.612 136.437 181.206C133.8 178.206 133.618 175.151 136.48 172.397C139.341 169.644 142.473 170.157 145.805 173.117C145.899 176.369 145.596 179.07 145.293 181.771C145.293 181.771 145.287 181.74 144.982 181.775C144.895 182.269 145.113 182.727 145.332 183.185ZM138.164 178.411C140.21 180.184 142.259 180.268 143.147 177.528C143.444 176.614 141.839 175.082 141.103 173.833C139.962 175.163 138.821 176.492 138.164 178.411Z" fill="#C3E9E9"/>
<path d="M157.912 328.307C158.394 324.972 158.838 321.994 159.447 317.911C162.676 320.268 165.307 322.188 167.938 324.108C167.984 324.696 168.029 325.284 168.075 325.872C164.674 326.803 161.274 327.734 157.912 328.307Z" fill="#CAECED"/>
<path d="M286.934 225.087C285.992 225.779 285.049 226.471 284.289 226.797C285.103 223.448 285.734 220.465 286.365 217.483C286.862 218.599 287.358 219.716 287.952 221.051C290.224 221.611 293.066 222.312 295.908 223.013C295.789 223.772 295.669 224.531 295.549 225.29C293.191 224.956 290.833 224.622 287.92 224.119C287.221 224.329 287.078 224.708 286.934 225.087Z" fill="#B1E0DF"/>
<path d="M334.216 358.595C325.535 358.924 316.887 358.934 307.777 358.869C307.476 358.422 307.636 358.049 308.175 357.182C316.844 356.772 325.134 356.855 333.898 356.971C334.331 357.427 334.29 357.851 334.216 358.595Z" fill="#3E9795"/>
<path d="M119.94 226.928C119.814 226.808 119.689 226.688 119.381 226.053C118.148 224.674 117.098 223.809 116.048 222.944C116.048 222.944 116.261 222.948 116.237 222.63C116.907 221.462 117.601 220.613 118.295 219.764C120.283 219.377 122.27 218.99 125.262 218.407C124.267 221.709 123.585 223.969 122.296 226.529C121.106 226.863 120.523 226.895 119.94 226.928Z" fill="#CAECED"/>
<path d="M285.971 217.445C285.734 220.465 285.103 223.448 284.142 226.538C283.811 226.646 283.406 226.455 283.171 225.963C282.554 225.304 282.172 225.135 281.789 224.966C280.391 223.992 278.993 223.018 276.534 221.305C280.314 219.676 282.945 218.542 285.971 217.445Z" fill="#CAECED"/>
<path d="M116.136 223.282C117.098 223.809 118.148 224.674 119.273 225.816C118.157 227.45 117.085 228.944 115.733 230.114C114.781 230.938 113.449 231.324 112.287 231.905C112.014 231.518 111.741 231.131 111.469 230.744C113.054 228.369 114.639 225.994 116.136 223.282Z" fill="#B1E0DF"/>
<path d="M348.386 296.94C349.513 296.235 350.536 295.886 351.559 295.537C351.238 297.416 351.081 299.348 350.497 301.142C350.317 301.697 348.976 301.874 348.166 302.224C347.974 301.201 347.661 300.181 347.634 299.154C347.618 298.54 348.051 297.915 348.386 296.94Z" fill="#B1E0DF"/>
<path d="M164.801 171.705C164.303 174.886 163.417 178.079 162.453 181.552C161.255 180.939 159.732 180.16 158.894 179.732C159.718 177.206 160.484 174.862 161.283 172.125C162.349 171.729 163.382 171.724 164.801 171.705Z" fill="#3E9795"/>
<path d="M145.635 181.943C145.596 179.07 145.899 176.369 146.098 173.332C146.64 172.359 147.286 171.722 148.247 170.941C149.15 173.668 149.74 176.539 150.464 180.065C149.779 180.378 147.877 181.247 145.635 181.943Z" fill="#3E9795"/>
<path d="M148.279 203.924C148.332 207.525 147.966 211.012 147.601 214.498C147.217 214.5 146.834 214.502 146.45 214.504C146.45 211.109 146.45 207.715 146.726 204.014C147.288 203.742 147.575 203.776 148.279 203.924Z" fill="#3E9795"/>
<path d="M135.741 186.714C138.721 183.65 141.943 183.818 143.512 187.541C140.882 187.355 138.511 186.95 135.741 186.714Z" fill="#C3E9E9"/>
<path d="M134.633 198.518C134.317 202.468 133.808 206.142 133.298 210.272C132.973 206.944 132.59 203.163 132.417 199.373C132.401 199.028 133.734 198.621 134.633 198.518Z" fill="#C3E9E9"/>
<path d="M139.649 210.586C139.334 206.462 139.316 202.028 139.313 197.122C139.535 201.192 139.74 205.735 139.649 210.586Z" fill="#C3E9E9"/>
<path d="M123.676 190.084C126.377 190.132 129.05 190.537 131.723 190.941C131.739 191.182 131.755 191.422 131.771 191.662C129.092 191.662 126.413 191.662 123.253 191.617C123.064 191.194 123.355 190.817 123.676 190.084Z" fill="#C3E9E9"/>
<path d="M137.394 192.463C136.432 191.611 135.524 190.467 134.783 189.116C135.783 189.996 136.616 191.084 137.394 192.463Z" fill="#C3E9E9"/>
<path d="M117.918 219.737C117.601 220.613 116.907 221.462 116.132 222.647C115.472 222.398 114.893 221.812 114.314 221.226C115.39 220.721 116.465 220.216 117.918 219.737Z" fill="#B1E0DF"/>
<path d="M130.52 194.684C130.874 194.373 131.378 194.228 132.028 194.255C131.672 194.568 131.17 194.709 130.52 194.684Z" fill="#C3E9E9"/>
<path d="M125.847 194.173C126.374 194.007 127.057 194.056 127.985 194.346C127.489 194.521 126.746 194.454 125.847 194.173Z" fill="#C3E9E9"/>
<path d="M120.035 227.244C120.523 226.895 121.106 226.863 122.128 226.832C121.755 227.077 120.942 227.319 120.035 227.244Z" fill="#B1E0DF"/>
<path d="M134.506 194.756C134.597 194.625 134.875 194.662 135.158 194.897C135.007 195.039 134.85 194.981 134.506 194.756Z" fill="#C3E9E9"/>
<path d="M135.167 212.046C135.276 211.857 135.595 211.849 136.391 211.866C136.372 212.003 135.874 212.116 135.167 212.046Z" fill="#C3E9E9"/>
<path d="M281.952 225.223C282.172 225.135 282.554 225.304 283.045 225.778C282.808 225.882 282.462 225.681 281.952 225.223Z" fill="#B1E0DF"/>
<path d="M1089.97 284.963C1089.97 307.566 1089.97 329.053 1089.97 351.084C1077.07 351.084 1065.43 351.084 1052.9 351.084C1052.9 284.724 1052.9 219.083 1052.9 152.645C1069.29 150.866 1083.53 149.674 1095.45 166.547C1118.17 198.691 1143.43 229.04 1167.65 260.117C1170.82 264.179 1174.11 268.139 1179.54 274.858C1179.54 232.412 1179.54 193.126 1179.54 151.589C1191.62 151.589 1202.25 151.049 1212.74 152.057C1214.77 152.253 1217.68 158.468 1217.72 161.94C1218.13 191.682 1217.97 221.431 1217.98 251.178C1217.99 280.182 1217.99 309.186 1217.99 338.189C1217.99 342.21 1217.99 346.231 1217.99 349.95C1199.94 354.857 1196.04 353.609 1185.9 340.468C1156.83 302.804 1127.75 265.143 1098.64 227.509C1096.72 225.019 1094.5 222.76 1089.97 221.1C1089.97 242.016 1089.97 262.932 1089.97 284.963Z" fill="#158C8B"/>
<path d="M1397.81 235.907C1398.13 247.072 1398.13 257.37 1398.13 268.791C1385.27 268.791 1373.5 268.812 1361.73 268.786C1340.55 268.739 1319.36 268.889 1298.18 268.471C1291.12 268.332 1287.92 270.278 1288.37 277.808C1288.9 286.7 1289.05 295.664 1288.56 304.552C1288.13 312.313 1290.91 314.906 1298.71 314.793C1329.93 314.339 1361.16 314.777 1392.36 314.1C1401.52 313.901 1404.14 316.966 1403.49 325.549C1402.87 333.637 1403.36 341.809 1403.36 350.967C1352.77 350.967 1302.88 350.967 1252 350.967C1252 284.961 1252 219.066 1252 152.375C1255.61 152.143 1258.85 151.76 1262.09 151.753C1305.57 151.671 1349.06 151.821 1392.54 151.439C1400.61 151.368 1404.17 153.272 1403.42 161.953C1402.72 170.045 1403.27 178.246 1403.27 187.606C1398.54 187.841 1394.6 188.2 1390.66 188.207C1360.56 188.258 1330.45 188.595 1300.35 188.036C1290.89 187.86 1287.86 191.039 1288.57 200.108C1289.18 207.863 1289.06 215.738 1288.5 223.504C1287.92 231.474 1291.16 233.659 1298.81 233.553C1328.16 233.146 1357.52 233.254 1386.88 233.347C1390.42 233.359 1393.95 234.449 1397.81 235.907Z" fill="#188E8D"/>
<path d="M1946.27 354.825C1906.79 360.277 1871.73 354.088 1844.65 323.436C1811.6 286.013 1813 218.481 1847.21 180.377C1880.6 143.184 1941.74 135.959 1983.36 166.081C1995.24 174.679 2005.69 187.189 2012.79 200.109C2038.52 246.974 2025.76 309.694 1984.77 338.659C1973.91 346.334 1959.83 349.455 1946.27 354.825ZM1953.07 188.921C1927.35 178.398 1902.73 179.498 1881.03 197.98C1862.34 213.908 1857.32 235.633 1858.29 259.332C1860.24 307.295 1906.25 336.208 1950.5 317.096C1974.09 306.904 1985.5 287.852 1987.57 263.19C1990.11 232.888 1983.2 206.258 1953.07 188.921Z" fill="#158C8B"/>
<path d="M841.554 322.257C813.615 282.198 811.28 240.593 832.981 198.457C853.576 158.469 897.345 140.972 946.568 150.749C985.997 158.58 1016.92 193.609 1021.3 236.343C1025.5 277.216 1016.11 313.026 981.432 339.066C949.022 363.403 876.461 365.933 841.554 322.257ZM984.748 242.871C980.223 207.49 959.773 185.949 927.9 182.994C896.322 180.065 869.252 196.962 860.447 227.54C856.848 240.037 855.899 254.099 857.282 267.072C860.759 299.684 884.165 320.258 917.11 322.178C948.782 324.025 974.721 305.633 982.413 274.613C984.784 265.052 984.2 254.758 984.748 242.871Z" fill="#148C8B"/>
<path d="M1644.45 350.974C1636.18 351.193 1627.92 351.411 1618.53 350.648C1615.13 348.148 1612.85 346.63 1610.58 345.113C1627.13 307.734 1643.77 270.393 1660.21 232.962C1670.67 209.126 1681.09 185.26 1690.96 161.179C1693.84 154.181 1697.93 152.865 1705.08 151.888C1728.08 148.75 1740.02 156.428 1748.98 179.491C1769.95 233.513 1794.99 285.956 1818.34 339.058C1819.94 342.704 1821.16 346.518 1823.22 352.003C1810.38 352.003 1798.98 352.196 1787.6 351.823C1785.57 351.756 1783.44 349.538 1781.69 347.942C1780.67 347.009 1779.97 345.402 1779.72 343.993C1774.9 316.436 1757.73 310.053 1731.98 313.133C1712.55 315.458 1692.59 313.134 1672.9 313.861C1668.91 314.008 1663.67 317.682 1661.48 321.25C1656.65 329.104 1653.41 337.928 1648.36 346.962C1646.27 348.704 1645.36 349.839 1644.45 350.974ZM1725.47 216.223C1722.64 210.012 1719.8 203.802 1715.75 194.929C1703.05 224.265 1691.56 250.789 1679.64 278.316C1704.22 278.316 1726.73 278.316 1751.81 278.316C1742.86 257.102 1734.56 237.41 1725.47 216.223Z" fill="#158D8D"/>
<path d="M1610.01 345.48C1612.85 346.63 1615.13 348.148 1617.53 350.381C1601.71 351.286 1585.74 351.975 1569.83 351.304C1566.05 351.144 1561.39 347.181 1558.95 343.694C1546.61 326.029 1534.9 307.931 1522.92 290.018C1520.49 286.387 1517.84 282.902 1514.06 277.632C1502.9 294.152 1490.98 308.522 1482.76 324.761C1471.59 346.828 1455.89 356.602 1431.46 351.995C1429.01 351.532 1426.39 351.933 1422.32 351.933C1423.91 348.615 1424.66 346.334 1425.97 344.45C1445.31 316.711 1464.54 288.896 1484.24 261.425C1488.82 255.05 1489.22 250.392 1484.64 243.722C1464.26 214.05 1444.44 184.001 1423.03 152.025C1437.42 152.025 1450.14 151.575 1462.77 152.39C1465.42 152.561 1468.18 157.106 1470.19 160.106C1481.98 177.699 1493.54 195.445 1505.23 213.108C1507.64 216.758 1510.26 220.274 1513.95 225.505C1519.18 217.961 1523.59 211.736 1527.86 205.417C1537.85 190.638 1548.17 176.065 1557.53 160.899C1562.07 153.556 1567.46 150.913 1575.8 151.496C1584.87 152.128 1594.02 151.639 1605.83 151.639C1596.14 166.114 1588.26 178.092 1580.17 189.929C1567.6 208.331 1555.05 226.751 1542.13 244.911C1538.55 249.946 1538.51 253.571 1542.13 258.707C1561.83 286.643 1581.1 314.872 1600.61 342.94C1602.67 345.916 1604.29 351.631 1610.01 345.48Z" fill="#168D8D"/>
<path d="M669.853 165.216C711.759 136.219 780.087 145.554 803.923 177.914C801.608 180.912 799.327 184.232 796.674 187.224C792.245 192.221 788.219 199.782 782.816 201.029C778.265 202.079 771.879 195.877 766.506 192.559C722.936 165.652 669.044 192.428 664.582 243.357C661.955 273.339 669.201 298.768 698.002 314.016C722.872 327.183 754.621 322.877 779.078 302.859C779.934 302.158 780.909 301.603 783.162 300.076C791.001 308.448 798.978 316.967 807.862 326.456C778.152 354.936 743.58 360.814 706.046 354.001C664.369 346.435 637.975 321.11 629.451 279.916C620.083 234.639 630.984 195.074 669.853 165.216Z" fill="#158B8A"/>
<path d="M764.677 499.227C764.695 508.513 764.438 516.699 764.818 524.855C765.121 531.352 763.143 534.605 756.064 534.15C749.484 533.726 742.856 534.059 734.963 534.059C734.963 518.929 734.963 505.031 734.963 491.133C733.906 490.636 732.849 490.14 731.792 489.644C721.268 504.255 710.743 518.866 699.306 534.745C687.678 518.509 677.21 503.893 666.743 489.277C665.757 489.482 664.771 489.687 663.785 489.891C663.785 503.905 663.785 517.918 663.785 532.753C652.841 532.753 643.856 532.753 634.308 532.753C634.308 490.309 634.308 448.548 634.308 406.787C635.308 406.164 636.307 405.542 637.306 404.919C657.405 431.378 677.504 457.836 698.795 485.864C719.703 458.117 739.778 431.473 759.854 404.83C761.461 405.211 763.069 405.591 764.676 405.972C764.676 436.686 764.676 467.4 764.677 499.227Z" fill="#5B5B5C"/>
<path d="M1203.86 445.109C1218.51 417.759 1240.85 404.93 1270.84 407.1C1297.69 409.043 1316.85 423.4 1327.11 448.032C1338.12 474.486 1329 503.564 1305.6 521.473C1282.94 538.82 1247.8 538.794 1224.35 521.412C1200.48 503.717 1192.71 475.607 1203.86 445.109ZM1297.86 459.238C1296.57 456.573 1295.59 453.702 1293.95 451.277C1284.95 438.002 1266.38 432.72 1251.31 438.977C1236.27 445.22 1227.45 461.182 1230.36 476.873C1233.4 493.196 1247.26 504.334 1264.71 504.476C1289.06 504.674 1303.58 485.901 1297.86 459.238Z" fill="#5A5A5B"/>
<path d="M1682.82 459.065C1682.82 441.666 1682.82 425.382 1682.82 406.114C1705.45 407.662 1727.8 406.111 1748.44 411.322C1779.72 419.22 1787.79 459.351 1764.69 482.151C1762.34 484.476 1759.84 486.663 1756.64 489.631C1765.87 503.486 1775.03 517.225 1785.67 533.188C1772.58 533.188 1761.98 533.591 1751.46 532.898C1748.89 532.73 1746.08 529.314 1744.22 526.779C1737.19 517.205 1730.58 507.324 1723.64 497.68C1721.41 494.567 1718.65 491.828 1716.12 488.919C1715.14 489.199 1714.16 489.48 1713.18 489.761C1713.18 503.861 1713.18 517.961 1713.18 532.754C1702.31 532.754 1693.27 532.754 1682.82 532.754C1682.82 508.23 1682.82 484.206 1682.82 459.065ZM1712.29 443.131C1712.3 446.084 1712.3 449.037 1712.32 451.989C1712.4 468.083 1712.4 467.97 1728.03 467.365C1736.5 467.038 1744.67 464.605 1745.34 455.527C1745.73 450.143 1742.1 441.409 1737.83 439.406C1730.11 435.783 1720.18 432.076 1712.29 443.131Z" fill="#5C5C5D"/>
<path d="M1478.44 528.383C1475.08 538.901 1471.21 531.763 1468.42 529.235C1448.59 511.247 1428.99 493.009 1409.28 474.886C1407.2 472.973 1404.91 471.283 1400.97 468.049C1400.97 490.556 1400.97 511.061 1400.97 533.557C1391.37 533.557 1383 533.898 1374.71 533.274C1373.01 533.147 1370.23 529.415 1370.22 527.332C1369.99 487.915 1370.1 448.496 1370.19 409.077C1370.19 408.418 1370.8 407.76 1372.59 404.13C1397.15 425.981 1421.14 447.326 1447.27 470.571C1447.27 448.568 1447.27 428.897 1447.27 408.188C1457.93 408.188 1466.98 408.188 1478.5 408.188C1478.5 447.596 1478.5 487.542 1478.44 528.383Z" fill="#5C5C5E"/>
<path d="M1047.33 437.512C1042.4 439.628 1038.31 441.957 1034.22 444.287C1037.01 448.139 1039 453.505 1042.77 455.523C1050.22 459.502 1058.79 461.304 1066.65 464.585C1080.84 470.506 1089.79 480.456 1089.62 496.759C1089.47 512.375 1080.74 524.371 1065.08 530.496C1034.99 542.266 1003.03 525.304 1001.09 494.927C1009.17 493.723 1017.41 492.151 1025.73 491.509C1027.7 491.356 1029.94 494.283 1032.01 495.865C1035.38 498.448 1038.76 503.288 1042.04 503.201C1047.19 503.065 1054.75 501.017 1056.82 497.292C1060.59 490.525 1053.84 486.841 1048.11 484.685C1039.79 481.55 1030.94 479.656 1022.9 475.952C997.723 464.347 995.217 430.873 1018.04 415.008C1043.72 397.149 1080.39 409.575 1086.06 438.105C1086.41 439.852 1086.1 441.727 1086.1 444.709C1076.7 446.321 1067.33 447.928 1058.6 449.425C1054.78 445.136 1051.47 441.431 1047.33 437.512Z" fill="#5B5B5C"/>
<path d="M962.82 480.392C972.666 505.209 961.54 526.291 936.366 532.047C906.213 538.942 880.924 523.51 878.144 494.751C886.631 493.499 895.231 491.875 903.904 491.231C905.792 491.091 907.75 494.77 910.008 496.143C914.5 498.874 919.096 502.827 923.89 503.204C927.444 503.483 931.38 498.912 935.145 496.501C932.705 492.786 931.093 487.49 927.651 485.689C920.834 482.123 912.875 480.825 905.624 477.988C885.747 470.214 876.697 454.581 880.986 436.096C885.298 417.514 905.781 404.934 928.093 407.164C948.101 409.163 963.202 423.899 963.835 442.102C963.858 442.764 963.319 443.445 962.668 445.02C954.144 446.505 945.113 448.079 936.083 449.652C936.453 448.554 936.824 447.457 937.195 446.359C931.355 443.379 925.719 439.681 919.533 437.917C917.952 437.466 912.639 443.017 912.461 446.013C911.849 456.329 921.361 456.406 927.951 458.736C940.949 463.331 954.385 466.956 962.82 480.392Z" fill="#5B5B5C"/>
<path d="M1558.81 517.831C1549.45 535.849 1547.17 536.686 1517.73 532.247C1538.24 489.614 1558.45 447.605 1578.66 405.595C1579.93 405.511 1581.2 405.427 1582.47 405.342C1602.61 447.385 1622.75 489.428 1643.96 533.711C1632.74 533.711 1623.54 534.511 1614.63 533.268C1611.59 532.845 1608.42 527.656 1606.81 523.986C1604.09 517.763 1600.52 514.552 1593.37 515.162C1582.07 516.126 1570.71 516.489 1558.81 517.831ZM1576.64 477.738C1575.21 481.42 1573.78 485.102 1571.94 489.848C1578.23 489.848 1583.07 489.848 1588.92 489.848C1587.68 486.081 1586.86 483.335 1585.85 480.661C1585.2 478.938 1584.66 476.434 1583.37 475.878C1581.72 475.16 1579.37 476.035 1576.64 477.738Z" fill="#5A5A5B"/>
<path d="M1893.61 530.695C1913.26 488.317 1932.85 446.749 1952.44 405.18C1953.7 405.075 1954.95 404.97 1956.21 404.865C1976.08 447.064 1995.95 489.264 2017 533.97C2005.63 533.97 1996.44 534.756 1987.52 533.541C1984.44 533.12 1980.78 528.15 1979.56 524.525C1976.95 516.755 1972.29 514.188 1964.52 514.964C1959.37 515.48 1954.07 515.542 1948.93 514.953C1938.5 513.755 1930.86 516.242 1927.66 527.484C1927 529.821 1923.78 533.089 1921.74 533.094C1912.34 533.114 1902.95 532.129 1893.61 530.695ZM1955.67 490.32C1963.34 487.018 1962.63 482.047 1952.68 473.032C1951 476.505 1949.37 479.762 1947.83 483.057C1944.72 489.683 1948.36 490.784 1955.67 490.32Z" fill="#5B5B5C"/>
<path d="M1821.23 432.376C1821.24 428.31 1821.24 425.343 1821.25 422.375C1821.27 407.023 1821.27 407.023 1837.06 407.029C1851.65 407.034 1851.67 407.034 1851.67 421.367C1851.68 455.491 1851.67 489.615 1851.64 523.74C1851.63 526.632 1851.33 529.525 1851.13 533.071C1841.49 533.071 1832.37 533.071 1821.23 533.071C1821.23 499.822 1821.23 466.648 1821.23 432.376Z" fill="#5F6161"/>
<path d="M810.379 408.069C819.503 407.818 827.613 407.818 836.571 407.818C836.571 449.928 836.571 490.974 836.571 532.896C827.004 532.896 817.657 532.896 807.17 532.896C807.17 498.057 807.047 463.936 807.27 429.818C807.317 422.648 808.633 415.486 810.379 408.069Z" fill="#5A5A5B"/>
<path d="M1128.52 450.138C1128.6 436.414 1128.67 423.806 1128.81 411.199C1128.82 410.547 1129.39 409.901 1130.49 407.627C1137.34 407.627 1145.06 407.183 1152.66 407.903C1154.89 408.115 1158.58 411.618 1158.6 413.642C1158.99 451.49 1159.02 489.343 1158.7 527.192C1158.68 529.255 1155.12 532.846 1152.95 533.052C1145.32 533.777 1137.59 533.334 1128.53 533.334C1128.53 505.213 1128.53 478.234 1128.52 450.138Z" fill="#58595A"/>
<path d="M1749.06 128.675C1736.12 138.403 1723.82 134.971 1711.72 128.905C1703.46 124.76 1696.89 123.827 1688.38 130.552C1685.08 133.161 1674.8 127.865 1668.35 124.813C1667 124.177 1667.23 116.881 1668.88 113.801C1677.45 97.7972 1691.08 93.0445 1707.22 99.5893C1717.55 103.778 1726.94 110.866 1739.05 100.826C1742.19 98.2302 1752.95 104.848 1762.9 108.114C1757.88 115.735 1753.78 121.94 1749.06 128.675Z" fill="#1B9190"/>
<path d="M1567.1 391.339C1573.53 381.501 1580.03 372.159 1587.27 363.419C1588.63 361.772 1593.71 361.208 1595.65 362.422C1600.52 365.46 1604.56 369.805 1610.21 374.743C1600.64 382.925 1592.34 390.714 1583.3 397.513C1576.19 402.855 1572.17 395.583 1567.1 391.339Z" fill="#5C5C5E"/>
<path d="M1645.08 351.122C1645.36 349.839 1646.27 348.704 1647.77 347.467C1647.48 348.667 1646.6 349.968 1645.08 351.122Z" fill="#168D8D"/>
<path d="M1576.97 476.981C1579.37 476.035 1581.72 475.16 1583.37 475.878C1584.66 476.434 1585.2 478.938 1585.85 480.66C1586.86 483.335 1587.68 486.081 1588.92 489.848C1583.07 489.848 1578.23 489.848 1571.94 489.848C1573.78 485.102 1575.21 481.42 1576.97 476.981Z" fill="#CAECED"/>
<path d="M1954.76 490.331C1948.36 490.784 1944.72 489.683 1947.83 483.057C1949.37 479.762 1951 476.505 1952.68 473.032C1962.63 482.047 1963.34 487.018 1954.76 490.331Z" fill="#CAECED"/>
<path d="M160.477 186.341C156.591 182.598 152.458 182.975 149.835 186.563C147.729 189.444 147.367 193.598 146.231 197.188C145.782 197.098 145.333 197.008 144.883 196.918C145.878 192.89 145.88 188.148 148.129 185.023C150.669 181.493 155.616 181.74 159.612 183.638C161.292 184.436 162.416 186.405 163.792 187.841C163.385 188.221 162.979 188.6 162.572 188.979C161.95 188.191 161.329 187.403 160.477 186.341Z" fill="#3E9795"/>
<path d="M156.134 193.99C152.993 193.103 150.134 191.877 152.556 188.401C153.163 187.529 156.476 187.347 157.439 188.16C159.666 190.038 159.625 192.434 156.134 193.99Z" fill="#26898A"/>
<path d="M128.368 188.438C125.592 187.17 124.148 185.233 126.234 183.032C127.018 182.205 130.374 182.335 131.12 183.229C133.375 185.929 131.488 187.597 128.368 188.438Z" fill="#3E9795"/>
<path d="M155.178 169.895C156.382 171.36 157.566 172.717 157.875 174.251C157.996 174.856 156.227 176.411 155.212 176.517C154.179 176.624 152.483 175.755 152.009 174.834C150.599 172.094 152.099 170.53 155.178 169.895Z" fill="#26898A"/>
<path d="M184.746 184.097C183.766 185.821 182.749 187.313 181.433 188.465C181.262 188.615 178.901 187.133 178.728 186.191C178.514 185.026 179.413 182.616 180.032 182.547C181.497 182.384 183.08 183.287 184.746 184.097Z" fill="#26898A"/>
<path d="M176.878 194.581C177.273 195.738 177.28 196.826 177.285 198.32C176.323 199.855 174.866 200.848 174.518 202.14C173.959 204.214 174.134 206.486 173.927 209.824C170.451 202.996 171.804 197.026 176.878 194.581Z" fill="#3E9795"/>
<path d="M167.686 173.984C169.429 174.512 170.825 175.241 172.22 175.97C171.618 177.033 171.246 178.441 170.338 179.044C169.666 179.491 167.46 179.072 167.385 178.726C167.073 177.276 167.306 175.709 167.686 173.984Z" fill="#26898A"/>
<path d="M185.75 198.489C188.193 196.626 185.664 196.087 184.452 194.953C186.043 195.505 187.791 196.303 189.54 197.102C189.377 197.586 189.215 198.069 189.052 198.552C188.079 198.552 187.105 198.552 185.75 198.489Z" fill="#3E9795"/>
<path d="M177.378 206.096C177.585 206.322 177.711 206.867 177.646 207.562C177.402 207.279 177.35 206.847 177.378 206.096Z" fill="#3E9795"/>
<path d="M145.461 182.823C145.113 182.727 144.895 182.269 144.998 181.776C145.409 181.98 145.5 182.22 145.461 182.823Z" fill="#3E9795"/>
<path d="M274.297 332.639C274.586 328.128 274.218 323.609 275.751 319.87C277.763 314.964 283.94 315.437 288.478 320.272C293.728 325.866 291.526 333.894 282.679 336.085C284.569 333.212 285.819 331.313 286.47 330.324C284.688 328.28 283.222 326.6 280.841 323.871C280.456 328.336 280.144 331.955 279.741 336.63C277.716 335.222 276.102 334.1 274.297 332.639Z" fill="#188E8D"/>
<path d="M137.922 178.117C138.821 176.492 139.962 175.163 141.103 173.833C141.839 175.082 143.444 176.614 143.147 177.528C142.259 180.268 140.21 180.184 137.922 178.117Z" fill="#26898A"/>
<path d="M287.135 224.889C287.078 224.708 287.221 224.329 287.542 224.115C287.591 224.417 287.463 224.554 287.135 224.889Z" fill="#0E8D8B"/>
<rect x="111.293" y="166.745" width="84" height="70" fill="#0E8D8B"/>
<rect x="146.293" y="313.745" width="32" height="23" fill="#0E8D8B"/>
<rect x="271.293" y="208.745" width="32" height="23" fill="#0E8D8B"/>
<rect x="264.293" y="290.745" width="92" height="72" fill="#0E8D8B"/>
</svg>
